<svg width="140" height="47" viewBox="0 0 140 47" fill="none" xmlns="http://www.w3.org/2000/svg">
<path opacity="0.5" d="M128.851 0.00015275H11.155C10.726 0.00015275 10.3021 0.00015275 9.87425 0.00250274C9.51607 0.00485273 9.16075 0.0116795 8.79913 0.0174252C8.01353 0.0267098 7.22978 0.096122 6.45469 0.225059C5.68068 0.356802 4.93092 0.605177 4.23077 0.961781C3.53147 1.3214 2.8925 1.78869 2.33704 2.3467C1.77867 2.90314 1.31322 3.54631 0.958592 4.25148C0.602988 4.95524 0.356412 5.70939 0.227378 6.48787C0.097118 7.26537 0.0270238 8.05184 0.0177246 8.84021C0.00686756 9.20047 0.00572102 9.56192 0 9.92222V37.0814C0.00572102 37.4462 0.00686756 37.7997 0.0177246 38.1646C0.0270266 38.9529 0.0971208 39.7394 0.227378 40.5168C0.356055 41.2958 0.602647 42.0504 0.958592 42.7544C1.31306 43.4573 1.77857 44.0978 2.33704 44.6512C2.89039 45.2117 3.52978 45.6793 4.23077 46.0361C4.93092 46.3937 5.68059 46.6436 6.45469 46.7773C7.22991 46.9052 8.01358 46.9747 8.79913 46.9851C9.16075 46.9931 9.51607 46.9977 9.87425 46.9977C10.3021 47 10.726 47 11.155 47H128.851C129.272 47 129.699 47 130.119 46.9977C130.476 46.9977 130.842 46.9931 131.198 46.9851C131.982 46.9752 132.764 46.9058 133.538 46.7773C134.315 46.6426 135.067 46.3928 135.77 46.0361C136.471 45.6791 137.11 45.2115 137.662 44.6512C138.219 44.0957 138.686 43.4556 139.045 42.7544C139.398 42.0498 139.642 41.2953 139.769 40.5168C139.9 39.7393 139.972 38.953 139.986 38.1646C139.991 37.7997 139.991 37.4462 139.991 37.0814C140 36.6545 140 36.23 140 35.7962V11.2051C140 10.7748 140 10.3479 139.991 9.92222C139.991 9.56192 139.991 9.20047 139.986 8.84017C139.972 8.05172 139.9 7.26543 139.769 6.48782C139.642 5.70979 139.398 4.9557 139.045 4.25143C138.323 2.838 137.178 1.68748 135.77 0.961676C135.067 0.605942 134.314 0.357634 133.538 0.224953C132.764 0.0954482 131.982 0.0260118 131.198 0.0172607C130.842 0.0115267 130.476 0.00464123 130.119 0.00234999C129.699 0 129.272 0 128.851 0V0.00015275Z" fill="black"/>
<path d="M17.312 7.43499C17.3246 6.45427 17.584 5.49268 18.066 4.63968C18.548 3.78669 19.2371 3.07001 20.069 2.55634C19.5405 1.79828 18.8433 1.17442 18.0327 0.734325C17.2222 0.294228 16.3206 0.0500114 15.3996 0.0210716C13.435 -0.186033 11.5304 1.20174 10.5293 1.20174C9.50875 1.20174 7.96735 0.041634 6.30752 0.0759322C5.2339 0.110769 4.18756 0.42432 3.27047 0.986037C2.35338 1.54775 1.59681 2.33848 1.07447 3.28117C-1.1882 7.21555 0.499544 12.9978 2.66699 16.178C3.75141 17.7353 5.01878 19.4748 6.67712 19.4131C8.2999 19.3455 8.90598 18.3739 10.8648 18.3739C12.8055 18.3739 13.3741 19.4131 15.0661 19.3739C16.8074 19.3455 17.9045 17.8097 18.9509 16.2377C19.73 15.1281 20.3296 13.9017 20.7273 12.604C19.7157 12.1743 18.8524 11.455 18.245 10.5358C17.6377 9.61657 17.3132 8.53816 17.312 7.43499Z" transform="translate(11.6661 16.4185)" fill="white"/>
<path d="M3.79828 4.10146C4.74772 2.95677 5.21547 1.48547 5.10221 0C3.65167 0.153009 2.31179 0.849263 1.34952 1.95004C0.879041 2.48779 0.518703 3.1134 0.289108 3.7911C0.0595119 4.46881 -0.034838 5.18531 0.0114503 5.89966C0.736977 5.90716 1.45474 5.74922 2.11068 5.43775C2.76663 5.12627 3.34365 4.66937 3.79828 4.10146Z" transform="translate(21.984 10.2465)" fill="white"/>
<path d="M9.21329 10.6473H3.67549L2.3456 14.5911H0L5.24532 0H7.68231L12.9276 14.5911H10.542L9.21329 10.6473ZM4.24903 8.82742H8.63865L6.47472 2.4269H6.41416L4.24903 8.82742Z" transform="translate(40.2779 21.2419)" fill="white"/>
<path d="M9.97767 5.43289C9.97767 8.73872 8.21591 10.8626 5.55726 10.8626C4.88378 10.898 4.21399 10.7422 3.62458 10.4131C3.03517 10.0839 2.54997 9.5947 2.22453 9.00146H2.17422V14.2706H0V0.113269H2.10456V1.88265H2.14455C2.48495 1.29225 2.97835 0.805581 3.57224 0.474413C4.16614 0.143245 4.83833 -0.0200289 5.51727 0.00196125C8.20557 0.001973 9.97767 2.13624 9.97767 5.43289ZM7.7429 5.43289C7.7429 3.27912 6.63464 1.86314 4.94372 1.86314C3.28249 1.86314 2.1651 3.30894 2.1651 5.43289C2.1651 7.57634 3.28249 9.01181 4.94372 9.01181C6.63466 9.01181 7.7429 7.60617 7.7429 5.43289Z" transform="translate(54.5559 25.0817)" fill="white"/>
<path d="M9.97767 5.43288C9.97767 8.7387 8.21591 10.8626 5.55726 10.8626C4.88378 10.898 4.21399 10.7422 3.62458 10.4131C3.03517 10.0839 2.54997 9.59468 2.22453 9.00145H2.17422V14.2706H0V0.113258H2.10452V1.88264H2.1445C2.48491 1.29224 2.9783 0.805573 3.5722 0.474407C4.1661 0.143241 4.83829 -0.0200316 5.51724 0.00196182C8.20562 0.00196182 9.97767 2.13622 9.97767 5.43288ZM7.7429 5.43288C7.7429 3.27911 6.63464 1.86313 4.94372 1.86313C3.28249 1.86313 2.1651 3.30893 2.1651 5.43288C2.1651 7.57633 3.28249 9.0118 4.94372 9.0118C6.63466 9.0118 7.74291 7.60616 7.74291 5.43288H7.7429Z" transform="translate(66.2142 25.0817)" fill="white"/>
<path d="M2.22567 10.7689C2.38677 12.2159 3.78637 13.1659 5.69893 13.1659C7.53154 13.1659 8.85001 12.2158 8.85001 10.9112C8.85001 9.77864 8.05481 9.10051 6.17194 8.63577L4.28907 8.18023C1.62129 7.53306 0.38278 6.28004 0.38278 4.24674C0.38278 1.72922 2.56729 0 5.66923 0C8.73915 0 10.8437 1.72922 10.9145 4.24674H8.71973C8.58835 2.79062 7.38984 1.91167 5.63835 1.91167C3.88687 1.91167 2.68836 2.80096 2.68836 4.09528C2.68836 5.12685 3.45386 5.73385 5.32644 6.19853L6.92711 6.59326C9.90794 7.30124 11.1464 8.5038 11.1464 10.638C11.1464 13.3678 8.98136 15.0775 5.5378 15.0775C2.31589 15.0775 0.140533 13.408 0 10.7688L2.22567 10.7689Z" transform="translate(81.6714 20.9987)" fill="white"/>
<path d="M3.72461 0V2.51752H5.73888V4.24674H3.72461V10.1114C3.72461 11.0225 4.12793 11.447 5.01337 11.447C5.2525 11.4428 5.49124 11.426 5.72859 11.3965V13.1154C5.33049 13.1901 4.92587 13.2239 4.52095 13.2164C2.37644 13.2164 1.54011 12.4074 1.54011 10.3443V4.24674H0V2.51752H1.54008V0H3.72461Z" transform="translate(93.7856 22.6774)" fill="white"/>
<path d="M0 5.45042C0 2.10329 1.96284 0 5.02367 0C8.09476 0 10.0485 2.10324 10.0485 5.45042C10.0485 8.80674 8.10505 10.9008 5.02367 10.9008C1.94337 10.9008 0 8.80673 0 5.45042ZM7.83312 5.45042C7.83312 3.15436 6.78543 1.79921 5.02366 1.79921C3.26189 1.79921 2.21534 3.16469 2.21534 5.45042C2.21534 7.75566 3.26189 9.10048 5.02366 9.10048C6.78543 9.10048 7.83307 7.75566 7.83307 5.45042H7.83312Z" transform="translate(100.691 25.064)" fill="white"/>
<path d="M8.92595e-06 0.11317H2.07369V1.92384H2.12399C2.26429 1.35833 2.59416 0.858566 3.05815 0.508552C3.52213 0.158538 4.09194 -0.0203885 4.67181 0.00184874C4.92237 0.000970116 5.17224 0.0283007 5.41674 0.0833249V2.1258C5.10042 2.02872 4.77045 1.98415 4.43984 1.99384C4.12398 1.98097 3.80909 2.03691 3.51679 2.1578C3.22448 2.27869 2.96169 2.46167 2.74645 2.6942C2.53121 2.92672 2.36863 3.20326 2.26985 3.50485C2.17108 3.80644 2.13845 4.12592 2.17422 4.44136V10.7512H0L8.92595e-06 0.11317Z" transform="translate(112.532 25.0817)" fill="white"/>
<path d="M9.5549 7.64436C9.26242 9.57553 7.38983 10.9008 4.99396 10.9008C1.91258 10.9008 0 8.82738 0 5.50091C0 2.16411 1.92286 0 4.90256 0C7.83312 0 9.67602 2.02181 9.67602 5.24732V5.99546H2.19479V6.12742C2.16026 6.51893 2.20906 6.91333 2.33796 7.28444C2.46687 7.65555 2.67292 7.99487 2.94242 8.27987C3.21192 8.56486 3.53871 8.789 3.90109 8.93741C4.26348 9.08582 4.65315 9.15509 5.04424 9.14064C5.55803 9.18898 6.07364 9.06948 6.51437 8.79988C6.9551 8.53029 7.29741 8.12502 7.49038 7.64435L9.5549 7.64436ZM2.20507 4.46934H7.50065C7.52017 4.11732 7.46703 3.76504 7.34456 3.43462C7.2221 3.1042 7.03294 2.80277 6.78899 2.54925C6.54503 2.29572 6.25153 2.09558 5.9269 1.96138C5.60227 1.82717 5.25353 1.76181 4.90256 1.76938C4.5485 1.76726 4.19752 1.83558 3.86989 1.9704C3.54226 2.10522 3.24445 2.30387 2.99366 2.55489C2.74288 2.80591 2.54407 3.10433 2.40872 3.43291C2.27337 3.7615 2.20415 4.11376 2.20507 4.46935V4.46934Z" transform="translate(118.418 25.064)" fill="white"/>
<path d="M3.77441 10.1709C5.34668 10.1709 6.50391 9.24316 6.69922 7.85156H5.61035C5.41504 8.64746 4.70703 9.15039 3.77441 9.15039C2.50488 9.15039 1.71387 8.12012 1.71387 6.47949C1.71387 4.83398 2.50488 3.80371 3.76953 3.80371C4.69727 3.80371 5.40527 4.36035 5.61035 5.22461H6.69922C6.52344 3.78906 5.32227 2.7832 3.76953 2.7832C1.81152 2.7832 0.595703 4.19434 0.595703 6.47949C0.595703 8.75977 1.81641 10.1709 3.77441 10.1709ZM10.2637 10.1025C11.8164 10.1025 12.7686 9.0625 12.7686 7.33887C12.7686 5.625 11.8115 4.58008 10.2637 4.58008C8.71094 4.58008 7.75391 5.625 7.75391 7.33887C7.75391 9.0625 8.70605 10.1025 10.2637 10.1025ZM10.2637 9.16992C9.35059 9.16992 8.83789 8.50098 8.83789 7.33887C8.83789 6.18652 9.35059 5.5127 10.2637 5.5127C11.1719 5.5127 11.6895 6.18652 11.6895 7.33887C11.6895 8.49609 11.1719 9.16992 10.2637 9.16992ZM14.0332 10H15.083V6.74805C15.083 6.06445 15.5664 5.54199 16.2061 5.54199C16.8311 5.54199 17.2314 5.9082 17.2314 6.50879V10H18.2617V6.65527C18.2617 6.03027 18.7061 5.54199 19.3848 5.54199C20.0732 5.54199 20.415 5.89355 20.415 6.61133V10H21.4648V6.33789C21.4648 5.22949 20.8398 4.58008 19.7656 4.58008C19.0283 4.58008 18.418 4.95605 18.1494 5.53711H18.0664C17.832 4.95605 17.3291 4.58008 16.6016 4.58008C15.8936 4.58008 15.3564 4.93652 15.1221 5.53711H15.0439V4.68262H14.0332V10ZM22.959 10H24.0039V4.68262H22.959V10ZM23.4814 3.75C23.8721 3.75 24.1602 3.47168 24.1602 3.11035C24.1602 2.74414 23.8721 2.46582 23.4814 2.46582C23.0908 2.46582 22.8027 2.74414 22.8027 3.11035C22.8027 3.47168 23.0908 3.75 23.4814 3.75ZM25.5469 10H26.5967V6.88965C26.5967 6.05957 27.0898 5.54199 27.8662 5.54199C28.6426 5.54199 29.0137 5.9668 29.0137 6.82129V10H30.0635V6.55762C30.0635 5.29297 29.4092 4.58008 28.2227 4.58008C27.4219 4.58008 26.8945 4.93652 26.6357 5.52734H26.5576V4.68262H25.5469V10ZM33.7695 9.01367C32.8662 9.01367 32.3584 8.33496 32.3584 7.27539C32.3584 6.21582 32.8662 5.53711 33.7695 5.53711C34.6631 5.53711 35.21 6.21582 35.21 7.27539C35.21 8.33984 34.668 9.01367 33.7695 9.01367ZM33.7842 12.0312C35.2881 12.0312 36.2402 11.2598 36.2402 10.0439V4.68262H35.2344V5.53223H35.1514C34.8535 4.95605 34.2139 4.59473 33.4814 4.59473C32.124 4.59473 31.2744 5.65918 31.2744 7.28027C31.2744 8.87207 32.1143 9.92188 33.4717 9.92188C34.2041 9.92188 34.79 9.60449 35.1123 9.02832H35.1904V10.0488C35.1904 10.752 34.6729 11.167 33.7988 11.167C33.0908 11.167 32.6465 10.918 32.5586 10.5322H31.4844C31.5967 11.4355 32.4561 12.0312 33.7842 12.0312ZM40.376 6.18652C40.376 6.97754 40.8447 7.43164 41.8555 7.6709L42.7832 7.88574C43.3154 8.0127 43.5645 8.21777 43.5645 8.53516C43.5645 8.95996 43.1006 9.25293 42.4463 9.25293C41.8115 9.25293 41.4209 8.99902 41.2891 8.58887H40.2393C40.332 9.53125 41.1572 10.1025 42.4219 10.1025C43.6914 10.1025 44.624 9.43359 44.624 8.43262C44.624 7.65137 44.1504 7.2168 43.1396 6.98242L42.2559 6.77734C41.6797 6.64551 41.4111 6.44531 41.4111 6.12793C41.4111 5.71289 41.8555 5.43457 42.4414 5.43457C43.0371 5.43457 43.418 5.68359 43.5156 6.07422H44.5215C44.4189 5.13672 43.6377 4.58008 42.4414 4.58008C41.2402 4.58008 40.376 5.24414 40.376 6.18652ZM48.1348 10.1025C49.6875 10.1025 50.6396 9.0625 50.6396 7.33887C50.6396 5.625 49.6826 4.58008 48.1348 4.58008C46.582 4.58008 45.625 5.625 45.625 7.33887C45.625 9.0625 46.5771 10.1025 48.1348 10.1025ZM48.1348 9.16992C47.2217 9.16992 46.709 8.50098 46.709 7.33887C46.709 6.18652 47.2217 5.5127 48.1348 5.5127C49.043 5.5127 49.5605 6.18652 49.5605 7.33887C49.5605 8.49609 49.043 9.16992 48.1348 9.16992ZM54.1504 10.1025C55.7031 10.1025 56.6553 9.0625 56.6553 7.33887C56.6553 5.625 55.6982 4.58008 54.1504 4.58008C52.5977 4.58008 51.6406 5.625 51.6406 7.33887C51.6406 9.0625 52.5928 10.1025 54.1504 10.1025ZM54.1504 9.16992C53.2373 9.16992 52.7246 8.50098 52.7246 7.33887C52.7246 6.18652 53.2373 5.5127 54.1504 5.5127C55.0586 5.5127 55.5762 6.18652 55.5762 7.33887C55.5762 8.49609 55.0586 9.16992 54.1504 9.16992ZM57.9199 10H58.9697V6.88965C58.9697 6.05957 59.4629 5.54199 60.2393 5.54199C61.0156 5.54199 61.3867 5.9668 61.3867 6.82129V10H62.4365V6.55762C62.4365 5.29297 61.7822 4.58008 60.5957 4.58008C59.7949 4.58008 59.2676 4.93652 59.0088 5.52734H58.9307V4.68262H57.9199V10ZM68.8965 10.1025C70.4492 10.1025 71.4014 9.0625 71.4014 7.33887C71.4014 5.625 70.4443 4.58008 68.8965 4.58008C67.3438 4.58008 66.3867 5.625 66.3867 7.33887C66.3867 9.0625 67.3389 10.1025 68.8965 10.1025ZM68.8965 9.16992C67.9834 9.16992 67.4707 8.50098 67.4707 7.33887C67.4707 6.18652 67.9834 5.5127 68.8965 5.5127C69.8047 5.5127 70.3223 6.18652 70.3223 7.33887C70.3223 8.49609 69.8047 9.16992 68.8965 9.16992ZM72.666 10H73.7158V6.88965C73.7158 6.05957 74.209 5.54199 74.9854 5.54199C75.7617 5.54199 76.1328 5.9668 76.1328 6.82129V10H77.1826V6.55762C77.1826 5.29297 76.5283 4.58008 75.3418 4.58008C74.541 4.58008 74.0137 4.93652 73.7549 5.52734H73.6768V4.68262H72.666V10Z" transform="translate(41 6)" fill="#FFFFFE"/>
</svg>
