<svg width="140" height="47" viewBox="0 0 140 47" fill="none" xmlns="http://www.w3.org/2000/svg">
<path d="M128.851 0.00015275H11.155C10.726 0.00015275 10.3021 0.000152749 9.87425 0.00250274C9.51607 0.00485273 9.16075 0.0116795 8.79913 0.0174252C8.01353 0.0267098 7.22978 0.0961221 6.45469 0.225059C5.68068 0.356802 4.93092 0.605177 4.23077 0.961781C3.53147 1.3214 2.8925 1.78869 2.33704 2.3467C1.77867 2.90314 1.31322 3.54631 0.958592 4.25148C0.602988 4.95524 0.356412 5.70939 0.227378 6.48787C0.097118 7.26537 0.0270238 8.05184 0.0177246 8.84021C0.00686756 9.20047 0.00572102 9.56192 0 9.92222V37.0814C0.00572102 37.4462 0.00686756 37.7997 0.0177246 38.1646C0.0270266 38.953 0.0971208 39.7394 0.227378 40.5168C0.356055 41.2958 0.602647 42.0504 0.958592 42.7544C1.31306 43.4573 1.77857 44.0978 2.33704 44.6512C2.89039 45.2117 3.52978 45.6793 4.23077 46.0361C4.93092 46.3937 5.68059 46.6436 6.45469 46.7773C7.22991 46.9052 8.01358 46.9747 8.79913 46.9851C9.16075 46.9931 9.51607 46.9977 9.87425 46.9977C10.3021 47 10.726 47 11.155 47H128.851C129.272 47 129.699 47 130.119 46.9977C130.476 46.9977 130.842 46.9931 131.198 46.9851C131.982 46.9752 132.764 46.9058 133.538 46.7773C134.315 46.6426 135.067 46.3928 135.77 46.0361C136.471 45.6791 137.11 45.2115 137.662 44.6512C138.219 44.0957 138.686 43.4556 139.045 42.7544C139.398 42.0498 139.642 41.2953 139.769 40.5168C139.9 39.7393 139.972 38.953 139.986 38.1646C139.991 37.7997 139.991 37.4462 139.991 37.0814C140 36.6545 140 36.23 140 35.7962V11.2051C140 10.7748 140 10.3479 139.991 9.92222C139.991 9.56192 139.991 9.20047 139.986 8.84017C139.972 8.05172 139.9 7.26543 139.769 6.48782C139.642 5.70979 139.398 4.9557 139.045 4.25143C138.323 2.838 137.178 1.68748 135.77 0.961676C135.067 0.605942 134.314 0.357634 133.538 0.224953C132.764 0.0954482 131.982 0.0260118 131.198 0.0172607C130.842 0.0115267 130.476 0.00464124 130.119 0.00234999C129.699 0 129.272 0 128.851 0V0.00015275Z" fill="white"/>
<path fill-rule="evenodd" clip-rule="evenodd" d="M129.36 2.00015H11.155C10.7255 2.00015 10.3074 2.00016 9.88632 2.00247C9.61384 2.00426 9.34496 2.00871 9.06192 2.0134C8.98605 2.01466 8.90916 2.01593 8.83091 2.01717L8.82277 2.0173C8.14054 2.02536 7.4599 2.08553 6.78673 2.19731C6.21459 2.29506 5.66013 2.47868 5.14194 2.74217C4.63001 3.0059 4.16184 3.34845 3.75449 3.75767L3.74881 3.76338C3.34263 4.16816 3.00372 4.63632 2.74537 5.15004L2.74366 5.15345C2.47958 5.67607 2.29636 6.23634 2.20046 6.81491L2.19989 6.81834C2.08662 7.49439 2.02567 8.17826 2.01759 8.8638L2.01737 8.88213L2.01682 8.90046C2.00998 9.12723 2.00747 9.34188 2.00473 9.5758C2.00339 9.69063 2.00199 9.81011 2 9.93794V37.0658C2.00195 37.1927 2.00334 37.3106 2.00467 37.4237C2.00743 37.659 2.00995 37.8736 2.01684 38.1051L2.01737 38.1231L2.01759 38.141C2.02567 38.8265 2.08663 39.5103 2.19989 40.1864L2.20064 40.1909C2.2962 40.7694 2.4793 41.3296 2.74344 41.852L2.74437 41.8538C3.00181 42.3643 3.33972 42.8292 3.74472 43.2305L3.75255 43.2382L3.76029 43.2461C4.16321 43.6542 4.62846 43.9944 5.13813 44.2538L5.14039 44.255C5.65938 44.52 6.21469 44.7055 6.78788 44.8053C7.46173 44.9161 8.14286 44.9762 8.8256 44.9853L8.83445 44.9854L8.84331 44.9856C9.19284 44.9933 9.53322 44.9977 9.87425 44.9977H9.88523C10.3067 45 10.7251 45 11.155 45H128.851C129.273 45 129.694 45 130.108 44.9977L130.119 44.9976C130.459 44.9977 130.81 44.9933 131.153 44.9856L131.163 44.9854L131.173 44.9852C131.853 44.9767 132.532 44.9166 133.203 44.8055C133.781 44.7047 134.34 44.5186 134.864 44.2533C135.373 43.9938 135.837 43.6539 136.239 43.2464L136.244 43.2407L136.25 43.235C136.657 42.8294 136.998 42.362 137.261 41.8497C137.521 41.3288 137.701 40.771 137.795 40.1953L137.797 40.1859C137.91 39.5079 137.974 38.8224 137.987 38.1349C137.991 37.7861 137.991 37.4464 137.991 37.0814V37.06L137.991 37.0386C138 36.6367 138 36.2336 138 35.7962V11.2051C138 10.7711 138 10.3658 137.991 9.96508L137.991 9.94365V9.92222C137.991 9.56115 137.991 9.21358 137.987 8.86928C137.974 8.18199 137.91 7.49659 137.797 6.81876L137.795 6.81039C137.701 6.23419 137.521 5.67587 137.26 5.1544C136.729 4.11799 135.89 3.27545 134.861 2.74287C134.338 2.4795 133.78 2.29553 133.204 2.19684C132.533 2.0848 131.855 2.02472 131.176 2.01714L131.166 2.01703C131.098 2.01591 131.031 2.01479 130.964 2.01368C130.671 2.00883 130.387 2.00412 130.108 2.00232C129.861 2.00094 129.611 2.00038 129.36 2.00015ZM128.851 0C129.02 0 129.19 0 129.361 0.00015275C129.614 0.000379905 129.868 0.000944867 130.119 0.00234999C130.361 0.00390303 130.607 0.0075668 130.851 0.011552C130.901 0.0123662 130.951 0.0131939 131.001 0.0140197C131.067 0.0151151 131.133 0.0162073 131.198 0.0172607C131.982 0.0260118 132.764 0.0954482 133.538 0.224953C134.314 0.357634 135.067 0.605942 135.77 0.961676C137.178 1.68748 138.323 2.838 139.045 4.25143C139.398 4.9557 139.642 5.70979 139.769 6.48782C139.9 7.26543 139.972 8.05172 139.986 8.84017C139.991 9.20047 139.991 9.56192 139.991 9.92222C140 10.3479 140 10.7748 140 11.2051V35.7962C140 36.23 140 36.6545 139.991 37.0814C139.991 37.4462 139.991 37.7997 139.986 38.1646C139.972 38.953 139.9 39.7393 139.769 40.5168C139.642 41.2953 139.398 42.0498 139.045 42.7544C138.686 43.4556 138.219 44.0957 137.662 44.6512C137.11 45.2115 136.471 45.6791 135.77 46.0361C135.067 46.3928 134.315 46.6426 133.538 46.7773C132.764 46.9058 131.982 46.9752 131.198 46.9851C130.842 46.9931 130.476 46.9977 130.119 46.9977C129.699 47 129.272 47 128.851 47H11.155C10.726 47 10.3021 47 9.87425 46.9977C9.51607 46.9977 9.16075 46.9931 8.79913 46.9851C8.01358 46.9747 7.22991 46.9052 6.45469 46.7773C5.68059 46.6436 4.93092 46.3937 4.23077 46.0361C3.52978 45.6793 2.89039 45.2117 2.33704 44.6512C1.77857 44.0978 1.31306 43.4573 0.958592 42.7544C0.602647 42.0504 0.356055 41.2958 0.227378 40.5168C0.0971208 39.7394 0.0270266 38.9529 0.0177246 38.1646C0.0103071 37.9153 0.00742205 37.6713 0.00451415 37.4254C0.00316575 37.3114 0.00181243 37.197 0 37.0814V9.92222C0.00183392 9.80672 0.00319777 9.69111 0.00456211 9.57545C0.00745391 9.33031 0.0103479 9.08498 0.0177246 8.84021C0.0270238 8.05184 0.097118 7.26537 0.227378 6.48787C0.356412 5.70939 0.602988 4.95524 0.958592 4.25148C1.31322 3.54631 1.77867 2.90314 2.33704 2.3467C2.8925 1.78869 3.53147 1.3214 4.23077 0.961781C4.93092 0.605177 5.68068 0.356802 6.45469 0.225059C7.22978 0.096122 8.01353 0.0267098 8.79913 0.0174252C8.87421 0.0162324 8.94901 0.0149929 9.02362 0.0137566C9.30841 0.00903789 9.59043 0.00436487 9.87425 0.00250274C10.3021 0.000152749 10.726 0.00015275 11.155 0.00015275L128.851 0Z" fill="#E1E2E1"/>
<path d="M17.312 7.43499C17.3246 6.45427 17.584 5.49268 18.066 4.63968C18.548 3.78669 19.2371 3.07001 20.069 2.55634C19.5405 1.79828 18.8433 1.17442 18.0327 0.734325C17.2222 0.294228 16.3206 0.0500114 15.3996 0.0210716C13.435 -0.186033 11.5304 1.20174 10.5293 1.20174C9.50875 1.20174 7.96735 0.041634 6.30752 0.0759322C5.2339 0.110769 4.18756 0.42432 3.27047 0.986037C2.35338 1.54775 1.59681 2.33848 1.07447 3.28117C-1.1882 7.21555 0.499544 12.9978 2.66699 16.178C3.75141 17.7353 5.01878 19.4748 6.67712 19.4131C8.2999 19.3455 8.90598 18.3739 10.8648 18.3739C12.8055 18.3739 13.3741 19.4131 15.0661 19.3739C16.8074 19.3455 17.9045 17.8097 18.9509 16.2377C19.73 15.1281 20.3296 13.9017 20.7273 12.604C19.7157 12.1743 18.8524 11.455 18.245 10.5358C17.6377 9.61657 17.3132 8.53816 17.312 7.43499Z" transform="translate(11.6661 16.4185)" fill="#7B7F7E"/>
<path d="M3.79828 4.10146C4.74772 2.95677 5.21547 1.48547 5.10221 0C3.65167 0.153009 2.31179 0.849263 1.34952 1.95004C0.879041 2.48779 0.518703 3.1134 0.289108 3.7911C0.0595119 4.46881 -0.034838 5.18531 0.0114503 5.89966C0.736977 5.90716 1.45474 5.74922 2.11068 5.43775C2.76663 5.12627 3.34365 4.66937 3.79828 4.10146Z" transform="translate(21.984 10.2465)" fill="#7B7F7E"/>
<path d="M9.21329 10.6473H3.67549L2.3456 14.5911H0L5.24532 0H7.68231L12.9276 14.5911H10.542L9.21329 10.6473ZM4.24903 8.82742H8.63865L6.47472 2.4269H6.41416L4.24903 8.82742Z" transform="translate(40.2779 22.2419)" fill="#7B7F7E"/>
<path d="M9.97767 5.43289C9.97767 8.73872 8.21591 10.8626 5.55726 10.8626C4.88378 10.898 4.21399 10.7422 3.62458 10.4131C3.03517 10.0839 2.54997 9.5947 2.22453 9.00146H2.17422V14.2706H0V0.113269H2.10456V1.88265H2.14455C2.48495 1.29225 2.97835 0.805581 3.57224 0.474413C4.16614 0.143245 4.83833 -0.0200289 5.51727 0.00196125C8.20557 0.001973 9.97767 2.13624 9.97767 5.43289ZM7.7429 5.43289C7.7429 3.27912 6.63464 1.86314 4.94372 1.86314C3.28249 1.86314 2.1651 3.30894 2.1651 5.43289C2.1651 7.57634 3.28249 9.01181 4.94372 9.01181C6.63466 9.01181 7.7429 7.60617 7.7429 5.43289Z" transform="translate(54.5559 26.0817)" fill="#7B7F7E"/>
<path d="M9.97767 5.43288C9.97767 8.7387 8.21591 10.8626 5.55726 10.8626C4.88378 10.898 4.21399 10.7422 3.62458 10.4131C3.03517 10.0839 2.54997 9.59468 2.22453 9.00145H2.17422V14.2706H0V0.113258H2.10452V1.88264H2.1445C2.48491 1.29224 2.9783 0.805573 3.5722 0.474407C4.1661 0.143241 4.83829 -0.0200316 5.51724 0.00196182C8.20562 0.00196182 9.97767 2.13622 9.97767 5.43288ZM7.7429 5.43288C7.7429 3.27911 6.63464 1.86313 4.94372 1.86313C3.28249 1.86313 2.1651 3.30893 2.1651 5.43288C2.1651 7.57633 3.28249 9.0118 4.94372 9.0118C6.63466 9.0118 7.74291 7.60616 7.74291 5.43288H7.7429Z" transform="translate(66.2142 26.0817)" fill="#7B7F7E"/>
<path d="M2.22567 10.7689C2.38677 12.2159 3.78637 13.1659 5.69893 13.1659C7.53154 13.1659 8.85001 12.2158 8.85001 10.9112C8.85001 9.77864 8.05481 9.10051 6.17194 8.63577L4.28907 8.18023C1.62129 7.53306 0.38278 6.28004 0.38278 4.24674C0.38278 1.72922 2.56729 0 5.66923 0C8.73915 0 10.8437 1.72922 10.9145 4.24674H8.71973C8.58835 2.79062 7.38984 1.91167 5.63835 1.91167C3.88687 1.91167 2.68836 2.80096 2.68836 4.09528C2.68836 5.12685 3.45386 5.73385 5.32644 6.19853L6.92711 6.59326C9.90794 7.30124 11.1464 8.5038 11.1464 10.638C11.1464 13.3678 8.98136 15.0775 5.5378 15.0775C2.31589 15.0775 0.140533 13.408 0 10.7688L2.22567 10.7689Z" transform="translate(81.6714 21.9987)" fill="#7B7F7E"/>
<path d="M3.72461 0V2.51752H5.73888V4.24674H3.72461V10.1114C3.72461 11.0225 4.12793 11.447 5.01337 11.447C5.2525 11.4428 5.49124 11.426 5.72859 11.3965V13.1154C5.33049 13.1901 4.92587 13.2239 4.52095 13.2164C2.37644 13.2164 1.54011 12.4074 1.54011 10.3443V4.24674H0V2.51752H1.54008V0H3.72461Z" transform="translate(93.7856 23.6774)" fill="#7B7F7E"/>
<path d="M0 5.45042C0 2.10329 1.96284 0 5.02367 0C8.09476 0 10.0485 2.10324 10.0485 5.45042C10.0485 8.80674 8.10505 10.9008 5.02367 10.9008C1.94337 10.9008 0 8.80673 0 5.45042ZM7.83312 5.45042C7.83312 3.15436 6.78543 1.79921 5.02366 1.79921C3.26189 1.79921 2.21534 3.16469 2.21534 5.45042C2.21534 7.75566 3.26189 9.10048 5.02366 9.10048C6.78543 9.10048 7.83307 7.75566 7.83307 5.45042H7.83312Z" transform="translate(100.691 26.064)" fill="#7B7F7E"/>
<path d="M8.92595e-06 0.11317H2.07369V1.92384H2.12399C2.26429 1.35833 2.59416 0.858566 3.05815 0.508552C3.52213 0.158538 4.09194 -0.0203885 4.67181 0.00184874C4.92237 0.000970116 5.17224 0.0283007 5.41674 0.0833249V2.1258C5.10042 2.02872 4.77045 1.98415 4.43984 1.99384C4.12398 1.98097 3.80909 2.03691 3.51679 2.1578C3.22448 2.27869 2.96169 2.46167 2.74645 2.6942C2.53121 2.92672 2.36863 3.20326 2.26985 3.50485C2.17108 3.80644 2.13845 4.12592 2.17422 4.44136V10.7512H0L8.92595e-06 0.11317Z" transform="translate(112.532 26.0817)" fill="#7B7F7E"/>
<path d="M9.5549 7.64436C9.26242 9.57553 7.38983 10.9008 4.99396 10.9008C1.91258 10.9008 0 8.82738 0 5.50091C0 2.16411 1.92286 0 4.90256 0C7.83312 0 9.67602 2.02181 9.67602 5.24732V5.99546H2.19479V6.12742C2.16026 6.51893 2.20906 6.91333 2.33796 7.28444C2.46687 7.65555 2.67292 7.99487 2.94242 8.27987C3.21192 8.56486 3.53871 8.789 3.90109 8.93741C4.26348 9.08582 4.65315 9.15509 5.04424 9.14064C5.55803 9.18898 6.07364 9.06948 6.51437 8.79988C6.9551 8.53029 7.29741 8.12502 7.49038 7.64435L9.5549 7.64436ZM2.20507 4.46934H7.50065C7.52017 4.11732 7.46703 3.76504 7.34456 3.43462C7.2221 3.1042 7.03294 2.80277 6.78899 2.54925C6.54503 2.29572 6.25153 2.09558 5.9269 1.96138C5.60227 1.82717 5.25353 1.76181 4.90256 1.76938C4.5485 1.76726 4.19752 1.83558 3.86989 1.9704C3.54226 2.10522 3.24445 2.30387 2.99366 2.55489C2.74288 2.80591 2.54407 3.10433 2.40872 3.43291C2.27337 3.7615 2.20415 4.11376 2.20507 4.46935V4.46934Z" transform="translate(118.418 26.064)" fill="#7B7F7E"/>
<path d="M3.2373 7.72461C4.86328 7.72461 6.05469 6.75293 6.2207 5.3125H4.98047C4.80957 6.10352 4.13086 6.60156 3.2373 6.60156C2.03613 6.60156 1.28906 5.61523 1.28906 4.02344C1.28906 2.43652 2.03613 1.4502 3.23242 1.4502C4.12109 1.4502 4.7998 1.99707 4.97559 2.8418H6.21582C6.06934 1.37207 4.83398 0.327148 3.23242 0.327148C1.23535 0.327148 0 1.73828 0 4.02832C0 6.30859 1.24023 7.72461 3.2373 7.72461Z" transform="translate(41.5713 8.45117)" fill="#7B7F7E"/>
<path d="M9.7998 7.65625C11.3965 7.65625 12.3682 6.61133 12.3682 4.87793C12.3682 3.14941 11.3916 2.09961 9.7998 2.09961C8.21289 2.09961 7.23145 3.1543 7.23145 4.87793C7.23145 6.61133 8.19824 7.65625 9.7998 7.65625ZM9.7998 6.64062C8.95508 6.64062 8.47168 5.99609 8.47168 4.87793C8.47168 3.76465 8.95508 3.11523 9.7998 3.11523C10.6396 3.11523 11.123 3.76465 11.123 4.87793C11.123 5.99609 10.6445 6.64062 9.7998 6.64062Z" transform="translate(41.5713 8.45117)" fill="#7B7F7E"/>
<path d="M13.5889 7.54883H14.7998V4.30176C14.7998 3.64746 15.2441 3.1543 15.8447 3.1543C16.4404 3.1543 16.8115 3.51074 16.8115 4.09668V7.54883H17.9883V4.22363C17.9883 3.61328 18.4033 3.1543 19.0332 3.1543C19.6826 3.1543 20.0098 3.49609 20.0098 4.18457V7.54883H21.2158V3.87695C21.2158 2.76855 20.5713 2.09961 19.502 2.09961C18.7598 2.09961 18.1445 2.48535 17.8809 3.07129H17.7979C17.5732 2.4707 17.0605 2.09961 16.3232 2.09961C15.6152 2.09961 15.0684 2.46094 14.8389 3.07129H14.7559V2.20703H13.5889V7.54883Z" transform="translate(41.5713 8.45117)" fill="#7B7F7E"/>
<path d="M22.666 7.54883H23.8721V2.20703H22.666V7.54883ZM23.2666 1.33789C23.7109 1.33789 24.0137 1.05469 24.0137 0.668945C24.0137 0.283203 23.7109 0 23.2666 0C22.8271 0 22.5195 0.283203 22.5195 0.668945C22.5195 1.05469 22.8271 1.33789 23.2666 1.33789Z" transform="translate(41.5713 8.45117)" fill="#7B7F7E"/>
<path d="M25.376 7.54883H26.5869V4.43848C26.5869 3.65234 27.041 3.1543 27.7637 3.1543C28.501 3.1543 28.8428 3.56445 28.8428 4.37988V7.54883H30.0537V4.0918C30.0537 2.81738 29.4043 2.09961 28.2129 2.09961C27.417 2.09961 26.8799 2.46582 26.626 3.06152H26.543V2.20703H25.376V7.54883Z" transform="translate(41.5713 8.45117)" fill="#7B7F7E"/>
<path d="M33.7842 6.48438C32.9395 6.48438 32.4609 5.83984 32.4609 4.81934C32.4609 3.79883 32.9395 3.14941 33.7842 3.14941C34.624 3.14941 35.1367 3.79883 35.1367 4.81934C35.1367 5.83984 34.6289 6.48438 33.7842 6.48438ZM33.7842 9.58008C35.3418 9.58008 36.3281 8.80371 36.3281 7.56836V2.20703H35.1611V3.06152H35.0781C34.7852 2.48047 34.1504 2.11914 33.4229 2.11914C32.0605 2.11914 31.2158 3.18359 31.2158 4.81934C31.2158 6.42578 32.0557 7.4707 33.4033 7.4707C34.1455 7.4707 34.7266 7.1582 35.0342 6.58691H35.1172V7.59766C35.1172 8.2666 34.6338 8.65723 33.8037 8.65723C33.1396 8.65723 32.71 8.42285 32.6318 8.05664H31.416C31.5137 8.97461 32.4121 9.58008 33.7842 9.58008Z" transform="translate(41.5713 8.45117)" fill="#7B7F7E"/>
<path d="M40.3613 3.73535C40.3613 4.54102 40.8447 5.01465 41.8701 5.24902L42.8174 5.46875C43.3252 5.58105 43.5547 5.77148 43.5547 6.07422C43.5547 6.46973 43.1299 6.73828 42.5195 6.73828C41.9141 6.73828 41.5381 6.50391 41.4209 6.1084H40.2246C40.3174 7.08008 41.1572 7.65625 42.4902 7.65625C43.8232 7.65625 44.7656 6.97266 44.7656 5.94727C44.7656 5.16113 44.292 4.72168 43.2715 4.49219L42.3291 4.27734C41.792 4.15527 41.5381 3.96973 41.5381 3.66699C41.5381 3.28125 41.9531 3.01758 42.5049 3.01758C43.0713 3.01758 43.4277 3.25684 43.5156 3.63281H44.6533C44.5654 2.66113 43.7695 2.09961 42.5 2.09961C41.2402 2.09961 40.3613 2.76855 40.3613 3.73535Z" transform="translate(41.5713 8.45117)" fill="#7B7F7E"/>
<path d="M48.2959 7.65625C49.8926 7.65625 50.8643 6.61133 50.8643 4.87793C50.8643 3.14941 49.8877 2.09961 48.2959 2.09961C46.709 2.09961 45.7275 3.1543 45.7275 4.87793C45.7275 6.61133 46.6943 7.65625 48.2959 7.65625ZM48.2959 6.64062C47.4512 6.64062 46.9678 5.99609 46.9678 4.87793C46.9678 3.76465 47.4512 3.11523 48.2959 3.11523C49.1357 3.11523 49.6191 3.76465 49.6191 4.87793C49.6191 5.99609 49.1406 6.64062 48.2959 6.64062Z" transform="translate(41.5713 8.45117)" fill="#7B7F7E"/>
<path d="M54.3896 7.65625C55.9863 7.65625 56.958 6.61133 56.958 4.87793C56.958 3.14941 55.9814 2.09961 54.3896 2.09961C52.8027 2.09961 51.8213 3.1543 51.8213 4.87793C51.8213 6.61133 52.7881 7.65625 54.3896 7.65625ZM54.3896 6.64062C53.5449 6.64062 53.0615 5.99609 53.0615 4.87793C53.0615 3.76465 53.5449 3.11523 54.3896 3.11523C55.2295 3.11523 55.7129 3.76465 55.7129 4.87793C55.7129 5.99609 55.2344 6.64062 54.3896 6.64062Z" transform="translate(41.5713 8.45117)" fill="#7B7F7E"/>
<path d="M58.1787 7.54883H59.3896V4.43848C59.3896 3.65234 59.8438 3.1543 60.5664 3.1543C61.3037 3.1543 61.6455 3.56445 61.6455 4.37988V7.54883H62.8564V4.0918C62.8564 2.81738 62.207 2.09961 61.0156 2.09961C60.2197 2.09961 59.6826 2.46582 59.4287 3.06152H59.3457V2.20703H58.1787V7.54883Z" transform="translate(41.5713 8.45117)" fill="#7B7F7E"/>
<path d="M69.2627 7.65625C70.8594 7.65625 71.8311 6.61133 71.8311 4.87793C71.8311 3.14941 70.8545 2.09961 69.2627 2.09961C67.6758 2.09961 66.6943 3.1543 66.6943 4.87793C66.6943 6.61133 67.6611 7.65625 69.2627 7.65625ZM69.2627 6.64062C68.418 6.64062 67.9346 5.99609 67.9346 4.87793C67.9346 3.76465 68.418 3.11523 69.2627 3.11523C70.1025 3.11523 70.5859 3.76465 70.5859 4.87793C70.5859 5.99609 70.1074 6.64062 69.2627 6.64062Z" transform="translate(41.5713 8.45117)" fill="#7B7F7E"/>
<path d="M73.0518 7.54883H74.2627V4.43848C74.2627 3.65234 74.7168 3.1543 75.4395 3.1543C76.1768 3.1543 76.5186 3.56445 76.5186 4.37988V7.54883H77.7295V4.0918C77.7295 2.81738 77.0801 2.09961 75.8887 2.09961C75.0928 2.09961 74.5557 2.46582 74.3018 3.06152H74.2188V2.20703H73.0518V7.54883Z" transform="translate(41.5713 8.45117)" fill="#7B7F7E"/>
</svg>
