<svg width="100" height="100" viewBox="0 0 100 100" fill="none" xmlns="http://www.w3.org/2000/svg">
<g clip-path="url(#clip0)">
<path fill-rule="evenodd" clip-rule="evenodd" d="M2 25C2 18.7712 5.46942 13.0449 11.2537 8.83813C17.0369 4.63208 25.0757 2 34 2C42.9243 2 50.9631 4.63208 56.7463 8.83813C62.5306 13.0449 66 18.7712 66 25C66 25.3347 65.99 25.6682 65.9701 26H67.9734C67.9911 25.6685 68 25.335 68 25C68 17.9739 64.0822 11.7002 57.9227 7.2207C51.7623 2.74048 43.3011 0 34 0C24.6989 0 16.2377 2.74048 10.0773 7.2207C3.91785 11.7002 0 17.9739 0 25C0 25.6738 0.0360107 26.3408 0.106628 27H2.12006C2.04053 26.3401 2 25.6729 2 25ZM5.90308 36H3.44916C5.14227 38.5422 7.39771 40.8306 10.0773 42.7793C16.2377 47.2595 24.6989 50 34 50C43.3011 50 51.7623 47.2595 57.9227 42.7793C60.9493 40.5781 63.4346 37.9438 65.1799 35H62.8141C61.2767 37.2795 59.2238 39.3601 56.7463 41.1619C50.9631 45.3679 42.9243 48 34 48C25.0757 48 17.0369 45.3679 11.2537 41.1619C9.14331 39.627 7.34106 37.8899 5.90308 36Z" transform="translate(15.5034 37)" fill="#064DD6"/>
<path d="M10 20C15.5228 20 20 15.5228 20 10C20 4.47715 15.5228 0 10 0C4.47715 0 0 4.47715 0 10C0 15.5228 4.47715 20 10 20Z" transform="translate(39.5034 10)" fill="white" stroke="#064DD6" stroke-width="4"/>
<path fill-rule="evenodd" clip-rule="evenodd" d="M16.4971 14.9216C21.8587 14.9216 26.2234 14.1727 29.5895 12.7048C31.3175 11.9513 32.2848 10.0934 31.9112 8.24556L30.7511 2.50829C30.4291 0.915745 28.8978 -0.13102 27.297 0.147132C24.3145 0.66538 20.7175 0.92162 16.4971 0.92162C12.0026 0.92162 8.07465 0.630927 4.70775 0.0448921C3.10672 -0.233781 1.57489 0.813025 1.25282 2.40589L0.0797416 8.20751C-0.29781 10.0747 0.69387 11.9492 2.44997 12.6876C5.96601 14.166 10.6515 14.9216 16.4971 14.9216Z" transform="translate(33.5079 34.0784)" fill="white" stroke="#064DD6" stroke-width="4"/>
<path d="M10 20C15.5228 20 20 15.5228 20 10C20 4.47715 15.5228 0 10 0C4.47715 0 0 4.47715 0 10C0 15.5228 4.47715 20 10 20Z" transform="translate(73.1103 45.1968) rotate(5)" fill="white" stroke="#064DD6" stroke-width="4"/>
<path fill-rule="evenodd" clip-rule="evenodd" d="M16.4971 14.9216C21.8587 14.9216 26.2234 14.1727 29.5895 12.7048C31.3175 11.9513 32.2848 10.0934 31.9112 8.24556L30.7511 2.50829C30.4291 0.915745 28.8978 -0.13102 27.297 0.147132C24.3145 0.66538 20.7175 0.92162 16.4971 0.92162C12.0026 0.92162 8.07465 0.630927 4.70775 0.0448921C3.10672 -0.233781 1.57489 0.813025 1.25282 2.40589L0.0797416 8.20751C-0.29781 10.0747 0.69387 11.9492 2.44997 12.6876C5.96601 14.166 10.6515 14.9216 16.4971 14.9216Z" transform="translate(65.1262 68.665) rotate(5)" fill="white" stroke="#064DD6" stroke-width="4"/>
<path d="M10 20C15.5228 20 20 15.5228 20 10C20 4.47715 15.5228 0 10 0C4.47715 0 0 4.47715 0 10C0 15.5228 4.47715 20 10 20Z" transform="translate(5.97266 46.9402) rotate(-5)" fill="white" stroke="#064DD6" stroke-width="4"/>
<path fill-rule="evenodd" clip-rule="evenodd" d="M16.4971 14.9216C21.8587 14.9216 26.2234 14.1727 29.5895 12.7048C31.3175 11.9513 32.2848 10.0934 31.9112 8.24556L30.7511 2.50829C30.4291 0.915745 28.8978 -0.13102 27.297 0.147132C24.3145 0.66538 20.7175 0.92162 16.4971 0.92162C12.0026 0.92162 8.07465 0.630927 4.70775 0.0448921C3.10672 -0.233781 1.57489 0.813025 1.25282 2.40589L0.0797416 8.20751C-0.29781 10.0747 0.69387 11.9492 2.44997 12.6876C5.96601 14.166 10.6515 14.9216 16.4971 14.9216Z" transform="translate(2.01141 71.4531) rotate(-5)" fill="white" stroke="#064DD6" stroke-width="4"/>
</g>
<defs>
<clipPath id="clip0">
<rect width="100" height="100" fill="white"/>
</clipPath>
</defs>
</svg>
