<svg width="159" height="47" viewBox="0 0 159 47" fill="none" xmlns="http://www.w3.org/2000/svg">
<path fill-rule="evenodd" clip-rule="evenodd" d="M152.75 47H5.875C2.64375 47 0 44.3563 0 41.125V5.875C0 2.64375 2.64375 0 5.875 0H152.75C155.981 0 158.625 2.64375 158.625 5.875V41.125C158.625 44.3563 155.981 47 152.75 47Z" fill="white"/>
<path fill-rule="evenodd" clip-rule="evenodd" d="M5.875 45H152.75C154.877 45 156.625 43.2517 156.625 41.125V5.875C156.625 3.74832 154.877 2 152.75 2H5.875C3.74832 2 2 3.74832 2 5.875V41.125C2 43.2517 3.74832 45 5.875 45ZM5.875 47H152.75C155.981 47 158.625 44.3563 158.625 41.125V5.875C158.625 2.64375 155.981 0 152.75 0H5.875C2.64375 0 0 2.64375 0 5.875V41.125C0 44.3563 2.64375 47 5.875 47Z" fill="#E1E2E1"/>
<path d="M3.2373 7.39746C4.86328 7.39746 6.05469 6.42578 6.2207 4.98535H4.98047C4.80957 5.77637 4.13086 6.27441 3.2373 6.27441C2.03613 6.27441 1.28906 5.28809 1.28906 3.69629C1.28906 2.10938 2.03613 1.12305 3.23242 1.12305C4.12109 1.12305 4.7998 1.66992 4.97559 2.51465H6.21582C6.06934 1.04492 4.83398 0 3.23242 0C1.23535 0 0 1.41113 0 3.70117C0 5.98145 1.24023 7.39746 3.2373 7.39746Z" transform="translate(48.5713 7.77832)" fill="#7B7F7E"/>
<path d="M10.6641 0C8.61816 0 7.32422 1.4209 7.32422 3.69629C7.32422 5.97168 8.59375 7.39746 10.6641 7.39746C12.7197 7.39746 13.9893 5.9668 13.9893 3.69629C13.9893 1.4209 12.71 0 10.6641 0ZM10.6641 1.11816C11.9141 1.11816 12.7002 2.11914 12.7002 3.69629C12.7002 5.26855 11.9189 6.2793 10.6641 6.2793C9.38965 6.2793 8.61328 5.26855 8.61328 3.69629C8.61328 2.11914 9.40918 1.11816 10.6641 1.11816Z" transform="translate(48.5713 7.77832)" fill="#7B7F7E"/>
<path d="M22.71 7.22168V0.175781H21.2354L19.1162 5.30762H19.0283L16.9092 0.175781H15.4346V7.22168H16.6064V2.26562H16.6748L18.623 6.94824H19.5215L21.4697 2.26562H21.5381V7.22168H22.71Z" transform="translate(48.5713 7.77832)" fill="#7B7F7E"/>
<path d="M25.708 7.22168V0.175781H24.4482V7.22168H25.708Z" transform="translate(48.5713 7.77832)" fill="#7B7F7E"/>
<path d="M28.6621 7.22168V2.42676H28.7451L32.2021 7.22168H33.291V0.175781H32.0801V4.96582H31.9971L28.54 0.175781H27.4463V7.22168H28.6621Z" transform="translate(48.5713 7.77832)" fill="#7B7F7E"/>
<path d="M41.1279 4.39941V3.51562H38.2031V4.50195H39.8975L39.8926 4.64844C39.873 5.62012 39.1406 6.27441 38.0664 6.27441C36.8115 6.27441 36.0254 5.28809 36.0254 3.68652C36.0254 2.10449 36.7969 1.12305 38.0273 1.12305C38.9307 1.12305 39.5605 1.56738 39.8145 2.36816H41.0693C40.8447 0.927734 39.6533 0 38.0273 0C36.0205 0 34.7363 1.44043 34.7363 3.69629C34.7363 5.98145 36.0059 7.39746 38.0469 7.39746C39.9268 7.39746 41.1279 6.23047 41.1279 4.39941Z" transform="translate(48.5713 7.77832)" fill="#7B7F7E"/>
<path d="M44.9365 5.30762C45 6.58691 46.0693 7.39746 47.6855 7.39746C49.3945 7.39746 50.4541 6.54297 50.4541 5.1709C50.4541 4.09668 49.8535 3.50098 48.4229 3.17871L47.6123 2.99316C46.7383 2.79297 46.3818 2.51465 46.3818 2.04102C46.3818 1.44043 46.9189 1.0498 47.7295 1.0498C48.501 1.0498 49.0479 1.44043 49.1357 2.06055H50.3418C50.2832 0.849609 49.2139 0 47.7344 0C46.1572 0 45.1123 0.849609 45.1123 2.12891C45.1123 3.17871 45.7129 3.81348 46.9922 4.10156L47.9053 4.31152C48.8086 4.52148 49.1943 4.81934 49.1943 5.32715C49.1943 5.91797 48.5938 6.34277 47.7637 6.34277C46.8701 6.34277 46.2451 5.9375 46.167 5.30762H44.9365Z" transform="translate(48.5713 7.77832)" fill="#7B7F7E"/>
<path d="M54.9121 0C52.8662 0 51.5723 1.4209 51.5723 3.69629C51.5723 5.97168 52.8418 7.39746 54.9121 7.39746C56.9678 7.39746 58.2373 5.9668 58.2373 3.69629C58.2373 1.4209 56.958 0 54.9121 0ZM54.9121 1.11816C56.1621 1.11816 56.9482 2.11914 56.9482 3.69629C56.9482 5.26855 56.167 6.2793 54.9121 6.2793C53.6377 6.2793 52.8613 5.26855 52.8613 3.69629C52.8613 2.11914 53.6572 1.11816 54.9121 1.11816Z" transform="translate(48.5713 7.77832)" fill="#7B7F7E"/>
<path d="M62.7246 0C60.6787 0 59.3848 1.4209 59.3848 3.69629C59.3848 5.97168 60.6543 7.39746 62.7246 7.39746C64.7803 7.39746 66.0498 5.9668 66.0498 3.69629C66.0498 1.4209 64.7705 0 62.7246 0ZM62.7246 1.11816C63.9746 1.11816 64.7607 2.11914 64.7607 3.69629C64.7607 5.26855 63.9795 6.2793 62.7246 6.2793C61.4502 6.2793 60.6738 5.26855 60.6738 3.69629C60.6738 2.11914 61.4697 1.11816 62.7246 1.11816Z" transform="translate(48.5713 7.77832)" fill="#7B7F7E"/>
<path d="M68.7109 7.22168V2.42676H68.7939L72.251 7.22168H73.3398V0.175781H72.1289V4.96582H72.0459L68.5889 0.175781H67.4951V7.22168H68.7109Z" transform="translate(48.5713 7.77832)" fill="#7B7F7E"/>
<path d="M80.791 0C78.7451 0 77.4512 1.4209 77.4512 3.69629C77.4512 5.97168 78.7207 7.39746 80.791 7.39746C82.8467 7.39746 84.1162 5.9668 84.1162 3.69629C84.1162 1.4209 82.8369 0 80.791 0ZM80.791 1.11816C82.041 1.11816 82.8271 2.11914 82.8271 3.69629C82.8271 5.26855 82.0459 6.2793 80.791 6.2793C79.5166 6.2793 78.7402 5.26855 78.7402 3.69629C78.7402 2.11914 79.5361 1.11816 80.791 1.11816Z" transform="translate(48.5713 7.77832)" fill="#7B7F7E"/>
<path d="M86.7773 7.22168V2.42676H86.8604L90.3174 7.22168H91.4062V0.175781H90.1953V4.96582H90.1123L86.6553 0.175781H85.5615V7.22168H86.7773Z" transform="translate(48.5713 7.77832)" fill="#7B7F7E"/>
<path fill-rule="evenodd" clip-rule="evenodd" d="M77.4254 15.2198H79.618V0.5311H77.4254V15.2198ZM97.1737 5.82212L94.6604 12.1906H94.5851L91.9767 5.82212H89.6149L93.5265 14.7227L91.2963 19.6742H93.5841L99.6118 5.82212H97.1737ZM84.7398 13.5513C84.0207 13.5513 83.0196 13.1929 83.0196 12.3046C83.0196 11.1707 84.2675 10.736 85.3438 10.736C86.3085 10.736 86.7608 10.9439 87.3471 11.2271C87.1768 12.5878 86.0053 13.5513 84.7398 13.5513ZM85.0042 5.50135C83.4168 5.50135 81.7729 6.20048 81.0926 7.7503L83.0384 8.56222C83.4544 7.7503 84.2287 7.48475 85.0418 7.48475C86.1757 7.48475 87.3283 8.16507 87.3471 9.37532V9.52572C86.95 9.29895 86.1005 8.95937 85.0606 8.95937C82.9632 8.95937 80.8271 10.112 80.8271 12.2658C80.8271 14.2316 82.5473 15.4982 84.4743 15.4982C85.9489 15.4982 86.7608 14.8367 87.272 14.0612H87.3471V15.1951H89.4633V9.5645C89.4633 6.956 87.5175 5.50135 85.0042 5.50135ZM71.4541 7.61047H68.3356V2.5756H71.4541C73.0932 2.5756 74.0238 3.93272 74.0238 5.09245C74.0238 6.23102 73.0932 7.61047 71.4541 7.61047ZM71.3977 0.5311H66.1443V15.2198H68.3356V9.65497H71.3977C73.8276 9.65497 76.2164 7.89482 76.2164 5.09245C76.2164 2.29007 73.8276 0.5311 71.3977 0.5311ZM42.75 13.5536C41.2355 13.5536 39.9676 12.2858 39.9676 10.5444C39.9676 8.7843 41.2355 7.4965 42.75 7.4965C44.2458 7.4965 45.4184 8.7843 45.4184 10.5444C45.4184 12.2858 44.2458 13.5536 42.75 13.5536ZM45.2669 6.64462H45.1917C44.6993 6.0583 43.7535 5.52837 42.5609 5.52837C40.0616 5.52837 37.7716 7.72327 37.7716 10.5444C37.7716 13.3456 40.0616 15.5229 42.5609 15.5229C43.7535 15.5229 44.6993 14.993 45.1917 14.3867H45.2669V15.1058C45.2669 17.0187 44.2458 18.0409 42.5984 18.0409C41.2542 18.0409 40.4212 17.0751 40.0804 16.2608L38.1687 17.0563C38.7174 18.3817 40.1756 20.0091 42.5984 20.0091C45.1729 20.0091 47.3501 18.4945 47.3501 14.8038V5.83035H45.2669V6.64462ZM48.8647 15.2198H51.0608V0.529923H48.8647V15.2198ZM54.2967 10.3741C54.2403 8.44355 55.7925 7.4589 56.9088 7.4589C57.7806 7.4589 58.5185 7.89365 58.7641 8.51875L54.2967 10.3741ZM61.1118 8.70792C60.6958 7.59167 59.4268 5.52837 56.8336 5.52837C54.2592 5.52837 52.1207 7.5529 52.1207 10.5257C52.1207 13.3268 54.2404 15.5229 57.0792 15.5229C59.3704 15.5229 60.6958 14.1223 61.2445 13.308L59.5408 12.1718C58.9732 13.0049 58.1966 13.5536 57.0792 13.5536C55.9629 13.5536 55.1674 13.0425 54.6563 12.0402L61.3385 9.27662L61.1118 8.70792ZM7.87485 7.06175V9.18145H12.9473C12.7958 10.3741 12.3986 11.2447 11.7935 11.851C11.0544 12.5889 9.89937 13.402 7.87485 13.402C4.7517 13.402 2.30888 10.8852 2.30888 7.76205C2.30888 4.63772 4.7517 2.12087 7.87485 2.12087C9.5598 2.12087 10.79 2.78357 11.6983 3.63545L13.1941 2.13967C11.9251 0.928249 10.2413 0 7.87485 0C3.59667 0 0 3.48387 0 7.76205C0 12.0402 3.59667 15.5229 7.87485 15.5229C10.1837 15.5229 11.9251 14.7662 13.2881 13.3456C14.6887 11.945 15.1246 9.97692 15.1246 8.38597C15.1246 7.89365 15.087 7.4401 15.0106 7.06175H7.87485ZM20.8927 13.5536C19.3781 13.5536 18.0715 12.3046 18.0715 10.5257C18.0715 8.72672 19.3781 7.4965 20.8927 7.4965C22.4061 7.4965 23.7127 8.72672 23.7127 10.5257C23.7127 12.3046 22.4061 13.5536 20.8927 13.5536ZM20.8927 5.52837C18.1279 5.52837 15.8754 7.62927 15.8754 10.5257C15.8754 13.402 18.1279 15.5229 20.8927 15.5229C23.6563 15.5229 25.9088 13.402 25.9088 10.5257C25.9088 7.62927 23.6563 5.52837 20.8927 5.52837ZM31.8355 13.5536C30.3209 13.5536 29.0143 12.3046 29.0143 10.5257C29.0143 8.72672 30.3209 7.4965 31.8355 7.4965C33.35 7.4965 34.6555 8.72672 34.6555 10.5257C34.6555 12.3046 33.35 13.5536 31.8355 13.5536ZM31.8355 5.52837C29.0719 5.52837 26.8194 7.62927 26.8194 10.5257C26.8194 13.402 29.0719 15.5229 31.8355 15.5229C34.5991 15.5229 36.8515 13.402 36.8515 10.5257C36.8515 7.62927 34.5991 5.52837 31.8355 5.52837Z" transform="translate(48.2244 22.0303)" fill="#7B7F7E"/>
<path fill-rule="evenodd" clip-rule="evenodd" d="M0.54285 0.0846006C0.200925 0.446501 0 1.00697 0 1.7343V27.6994C0 28.4268 0.200925 28.9872 0.54285 29.3491L0.629801 29.4338L15.1751 14.8884V14.5453L0.629801 0L0.54285 0.0846006Z" transform="translate(11.7183 8.78308)" fill="#7B7F7E"/>
<mask id="mask0" mask-type="alpha" maskUnits="userSpaceOnUse" x="26" y="18" width="13" height="11">
<path d="M4.84687 10.0427L0 5.19232V4.84922L4.84922 0L10.7031 3.32525C12.3434 4.2582 12.3434 5.78335 10.7031 6.71513L4.9585 9.97927L4.84687 10.0427Z" transform="translate(26.8934 18.4792)" fill="#7B7F7E" fill-opacity="0.6"/>
</mask>
<g mask="url(#mask0)">
<path fill-rule="evenodd" clip-rule="evenodd" d="M4.84687 10.0427L0 5.19232V4.84922L4.84922 0L10.7031 3.32525C12.3434 4.2582 12.3434 5.78335 10.7031 6.71513L4.9585 9.97927L4.84687 10.0427Z" transform="translate(26.8934 18.4792)" fill="#7B7F7E" fill-opacity="0.6"/>
</g>
<mask id="mask1" mask-type="alpha" maskUnits="userSpaceOnUse" x="12" y="23" width="20" height="16">
<path d="M19.5908 4.9585L14.6323 0L0 14.6323C0.541675 15.2045 1.43468 15.275 2.44047 14.7039L19.5908 4.9585Z" transform="translate(12.2611 23.5)" fill="#7B7F7E" fill-opacity="0.7"/>
</mask>
<g mask="url(#mask1)">
<path fill-rule="evenodd" clip-rule="evenodd" d="M19.5908 4.9585L14.6323 0L0 14.6323C0.541675 15.2045 1.43468 15.275 2.44047 14.7039L19.5908 4.9585Z" transform="translate(12.2611 23.5)" fill="#7B7F7E" fill-opacity="0.7"/>
</g>
<mask id="mask2" mask-type="alpha" maskUnits="userSpaceOnUse" x="12" y="8" width="20" height="16">
<path d="M19.5908 10.14L2.44047 0.394544C1.43468 -0.176506 0.541675 -0.106006 0 0.466219L14.6323 15.0985L19.5908 10.14Z" transform="translate(12.2611 8.40161)" fill="#7B7F7E" fill-opacity="0.8"/>
</mask>
<g mask="url(#mask2)">
<path fill-rule="evenodd" clip-rule="evenodd" d="M19.5908 10.14L2.44047 0.394544C1.43468 -0.176506 0.541675 -0.106006 0 0.466219L14.6323 15.0985L19.5908 10.14Z" transform="translate(12.2611 8.40161)" fill="#7B7F7E" fill-opacity="0.8"/>
</g>
</svg>
