<svg width="159" height="47" viewBox="0 0 159 47" fill="none" xmlns="http://www.w3.org/2000/svg">
<path opacity="0.5" fill-rule="evenodd" clip-rule="evenodd" d="M152.75 47H5.875C2.64375 47 0 44.3563 0 41.125V5.875C0 2.64375 2.64375 0 5.875 0H152.75C155.981 0 158.625 2.64375 158.625 5.875V41.125C158.625 44.3563 155.981 47 152.75 47Z" fill="#0A0B09"/>
<path d="M3.77441 10.1709C5.34668 10.1709 6.50391 9.24316 6.69922 7.85156H5.61035C5.41504 8.64746 4.70703 9.15039 3.77441 9.15039C2.50488 9.15039 1.71387 8.12012 1.71387 6.47949C1.71387 4.83398 2.50488 3.80371 3.76953 3.80371C4.69727 3.80371 5.40527 4.36035 5.61035 5.22461H6.69922C6.52344 3.78906 5.32227 2.7832 3.76953 2.7832C1.81152 2.7832 0.595703 4.19434 0.595703 6.47949C0.595703 8.75977 1.81641 10.1709 3.77441 10.1709ZM11.1426 2.7832C9.12109 2.7832 7.85156 4.19922 7.85156 6.47461C7.85156 8.74512 9.09668 10.1709 11.1426 10.1709C13.1836 10.1709 14.4238 8.74023 14.4238 6.47461C14.4238 4.2041 13.1738 2.7832 11.1426 2.7832ZM11.1426 3.80371C12.4805 3.80371 13.3057 4.83887 13.3057 6.47461C13.3057 8.10059 12.4805 9.15039 11.1426 9.15039C9.79004 9.15039 8.96973 8.10059 8.96973 6.47461C8.96973 4.83887 9.81445 3.80371 11.1426 3.80371ZM23.0322 10V2.9541H21.7529L19.5068 8.30566H19.4238L17.1826 2.9541H15.9033V10H16.9189V4.91211H16.9873L19.0527 9.79492H19.8828L21.9482 4.91211H22.0166V10H23.0322ZM25.8936 10V2.9541H24.7998V10H25.8936ZM28.7256 10V4.99512H28.8037L32.4219 10H33.4082V2.9541H32.3438V7.95898H32.2656L28.6475 2.9541H27.6611V10H28.7256ZM41.1914 7.21191V6.33301H38.3008V7.25098H40.1172V7.40234C40.1074 8.44727 39.3164 9.15039 38.1641 9.15039C36.8408 9.15039 36.0107 8.125 36.0107 6.46484C36.0107 4.83398 36.8359 3.80371 38.1396 3.80371C39.1016 3.80371 39.7705 4.26758 40.0439 5.11719H41.1426C40.9033 3.69141 39.7412 2.7832 38.1396 2.7832C36.167 2.7832 34.8926 4.22852 34.8926 6.47461C34.8926 8.75 36.1523 10.1709 38.1494 10.1709C39.9951 10.1709 41.1914 9.01367 41.1914 7.21191ZM45.1025 8.10547C45.1807 9.36523 46.2305 10.1709 47.793 10.1709C49.4629 10.1709 50.5078 9.32617 50.5078 7.97852C50.5078 6.91895 49.9121 6.33301 48.4668 5.99609L47.6904 5.80566C46.7725 5.59082 46.4014 5.30273 46.4014 4.7998C46.4014 4.16504 46.9775 3.75 47.8418 3.75C48.6621 3.75 49.2285 4.15527 49.3311 4.80469H50.3955C50.332 3.61816 49.2871 2.7832 47.8564 2.7832C46.3184 2.7832 45.293 3.61816 45.293 4.87305C45.293 5.9082 45.874 6.52344 47.1484 6.82129L48.0566 7.04102C48.9893 7.26074 49.3994 7.58301 49.3994 8.12012C49.3994 8.74512 48.7549 9.19922 47.876 9.19922C46.9336 9.19922 46.2793 8.77441 46.1865 8.10547H45.1025ZM54.9512 2.7832C52.9297 2.7832 51.6602 4.19922 51.6602 6.47461C51.6602 8.74512 52.9053 10.1709 54.9512 10.1709C56.9922 10.1709 58.2324 8.74023 58.2324 6.47461C58.2324 4.2041 56.9824 2.7832 54.9512 2.7832ZM54.9512 3.80371C56.2891 3.80371 57.1143 4.83887 57.1143 6.47461C57.1143 8.10059 56.2891 9.15039 54.9512 9.15039C53.5986 9.15039 52.7783 8.10059 52.7783 6.47461C52.7783 4.83887 53.623 3.80371 54.9512 3.80371ZM62.7148 2.7832C60.6934 2.7832 59.4238 4.19922 59.4238 6.47461C59.4238 8.74512 60.6689 10.1709 62.7148 10.1709C64.7559 10.1709 65.9961 8.74023 65.9961 6.47461C65.9961 4.2041 64.7461 2.7832 62.7148 2.7832ZM62.7148 3.80371C64.0527 3.80371 64.8779 4.83887 64.8779 6.47461C64.8779 8.10059 64.0527 9.15039 62.7148 9.15039C61.3623 9.15039 60.542 8.10059 60.542 6.47461C60.542 4.83887 61.3867 3.80371 62.7148 3.80371ZM68.54 10V4.99512H68.6182L72.2363 10H73.2227V2.9541H72.1582V7.95898H72.0801L68.4619 2.9541H67.4756V10H68.54ZM80.7324 2.7832C78.7109 2.7832 77.4414 4.19922 77.4414 6.47461C77.4414 8.74512 78.6865 10.1709 80.7324 10.1709C82.7734 10.1709 84.0137 8.74023 84.0137 6.47461C84.0137 4.2041 82.7637 2.7832 80.7324 2.7832ZM80.7324 3.80371C82.0703 3.80371 82.8955 4.83887 82.8955 6.47461C82.8955 8.10059 82.0703 9.15039 80.7324 9.15039C79.3799 9.15039 78.5596 8.10059 78.5596 6.47461C78.5596 4.83887 79.4043 3.80371 80.7324 3.80371ZM86.5576 10V4.99512H86.6357L90.2539 10H91.2402V2.9541H90.1758V7.95898H90.0977L86.4795 2.9541H85.4932V10H86.5576Z" transform="translate(48 5)" fill="#FFFFFE"/>
<path fill-rule="evenodd" clip-rule="evenodd" d="M77.4254 15.2198H79.618V0.5311H77.4254V15.2198ZM97.1737 5.82212L94.6604 12.1906H94.5851L91.9767 5.82212H89.6149L93.5265 14.7227L91.2963 19.6742H93.5841L99.6118 5.82212H97.1737ZM84.7398 13.5513C84.0207 13.5513 83.0196 13.1929 83.0196 12.3046C83.0196 11.1707 84.2675 10.736 85.3438 10.736C86.3085 10.736 86.7608 10.9439 87.3471 11.2271C87.1768 12.5878 86.0053 13.5513 84.7398 13.5513ZM85.0042 5.50135C83.4168 5.50135 81.7729 6.20048 81.0926 7.7503L83.0384 8.56222C83.4544 7.7503 84.2287 7.48475 85.0418 7.48475C86.1757 7.48475 87.3283 8.16507 87.3471 9.37532V9.52572C86.95 9.29895 86.1005 8.95937 85.0606 8.95937C82.9632 8.95937 80.8271 10.112 80.8271 12.2658C80.8271 14.2316 82.5473 15.4982 84.4743 15.4982C85.9489 15.4982 86.7608 14.8367 87.272 14.0612H87.3471V15.1951H89.4633V9.5645C89.4633 6.956 87.5175 5.50135 85.0042 5.50135ZM71.4541 7.61047H68.3356V2.5756H71.4541C73.0932 2.5756 74.0238 3.93272 74.0238 5.09245C74.0238 6.23102 73.0932 7.61047 71.4541 7.61047ZM71.3977 0.5311H66.1443V15.2198H68.3356V9.65497H71.3977C73.8276 9.65497 76.2164 7.89482 76.2164 5.09245C76.2164 2.29007 73.8276 0.5311 71.3977 0.5311ZM42.75 13.5536C41.2355 13.5536 39.9676 12.2858 39.9676 10.5444C39.9676 8.7843 41.2355 7.4965 42.75 7.4965C44.2458 7.4965 45.4184 8.7843 45.4184 10.5444C45.4184 12.2858 44.2458 13.5536 42.75 13.5536ZM45.2669 6.64462H45.1917C44.6993 6.0583 43.7535 5.52837 42.5609 5.52837C40.0616 5.52837 37.7716 7.72327 37.7716 10.5444C37.7716 13.3456 40.0616 15.5229 42.5609 15.5229C43.7535 15.5229 44.6993 14.993 45.1917 14.3867H45.2669V15.1058C45.2669 17.0187 44.2458 18.0409 42.5984 18.0409C41.2542 18.0409 40.4212 17.0751 40.0804 16.2608L38.1687 17.0563C38.7174 18.3817 40.1756 20.0091 42.5984 20.0091C45.1729 20.0091 47.3501 18.4945 47.3501 14.8038V5.83035H45.2669V6.64462ZM48.8647 15.2198H51.0608V0.529923H48.8647V15.2198ZM54.2967 10.3741C54.2403 8.44355 55.7925 7.4589 56.9088 7.4589C57.7806 7.4589 58.5185 7.89365 58.7641 8.51875L54.2967 10.3741ZM61.1118 8.70792C60.6958 7.59167 59.4268 5.52837 56.8336 5.52837C54.2592 5.52837 52.1207 7.5529 52.1207 10.5257C52.1207 13.3268 54.2404 15.5229 57.0792 15.5229C59.3704 15.5229 60.6958 14.1223 61.2445 13.308L59.5408 12.1718C58.9732 13.0049 58.1966 13.5536 57.0792 13.5536C55.9629 13.5536 55.1674 13.0425 54.6563 12.0402L61.3385 9.27662L61.1118 8.70792ZM7.87485 7.06175V9.18145H12.9473C12.7958 10.3741 12.3986 11.2447 11.7935 11.851C11.0544 12.5889 9.89937 13.402 7.87485 13.402C4.7517 13.402 2.30888 10.8852 2.30888 7.76205C2.30888 4.63772 4.7517 2.12087 7.87485 2.12087C9.5598 2.12087 10.79 2.78357 11.6983 3.63545L13.1941 2.13967C11.9251 0.928249 10.2413 0 7.87485 0C3.59667 0 0 3.48387 0 7.76205C0 12.0402 3.59667 15.5229 7.87485 15.5229C10.1837 15.5229 11.9251 14.7662 13.2881 13.3456C14.6887 11.945 15.1246 9.97692 15.1246 8.38597C15.1246 7.89365 15.087 7.4401 15.0106 7.06175H7.87485ZM20.8927 13.5536C19.3781 13.5536 18.0715 12.3046 18.0715 10.5257C18.0715 8.72672 19.3781 7.4965 20.8927 7.4965C22.4061 7.4965 23.7127 8.72672 23.7127 10.5257C23.7127 12.3046 22.4061 13.5536 20.8927 13.5536ZM20.8927 5.52837C18.1279 5.52837 15.8754 7.62927 15.8754 10.5257C15.8754 13.402 18.1279 15.5229 20.8927 15.5229C23.6563 15.5229 25.9088 13.402 25.9088 10.5257C25.9088 7.62927 23.6563 5.52837 20.8927 5.52837ZM31.8355 13.5536C30.3209 13.5536 29.0143 12.3046 29.0143 10.5257C29.0143 8.72672 30.3209 7.4965 31.8355 7.4965C33.35 7.4965 34.6555 8.72672 34.6555 10.5257C34.6555 12.3046 33.35 13.5536 31.8355 13.5536ZM31.8355 5.52837C29.0719 5.52837 26.8194 7.62927 26.8194 10.5257C26.8194 13.402 29.0719 15.5229 31.8355 15.5229C34.5991 15.5229 36.8515 13.402 36.8515 10.5257C36.8515 7.62927 34.5991 5.52837 31.8355 5.52837Z" transform="translate(48.2244 20.0303)" fill="#FFFFFE"/>
<path fill-rule="evenodd" clip-rule="evenodd" d="M0.54285 0.0846006C0.200925 0.446501 0 1.00697 0 1.7343V27.6994C0 28.4268 0.200925 28.9872 0.54285 29.3491L0.629801 29.4338L15.1751 14.8884V14.5453L0.629801 0L0.54285 0.0846006Z" transform="translate(11.7183 8.78308)" fill="white"/>
<mask id="mask0" mask-type="alpha" maskUnits="userSpaceOnUse" x="26" y="18" width="13" height="11">
<path d="M4.84687 10.0427L0 5.19232V4.84922L4.84922 0L10.7031 3.32525C12.3434 4.2582 12.3434 5.78335 10.7031 6.71513L4.9585 9.97927L4.84687 10.0427Z" transform="translate(26.8934 18.4792)" fill="white" fill-opacity="0.6"/>
</mask>
<g mask="url(#mask0)">
<path fill-rule="evenodd" clip-rule="evenodd" d="M4.84687 10.0427L0 5.19232V4.84922L4.84922 0L10.7031 3.32525C12.3434 4.2582 12.3434 5.78335 10.7031 6.71513L4.9585 9.97927L4.84687 10.0427Z" transform="translate(26.8934 18.4792)" fill="white" fill-opacity="0.6"/>
</g>
<mask id="mask1" mask-type="alpha" maskUnits="userSpaceOnUse" x="12" y="23" width="20" height="16">
<path d="M19.5908 4.9585L14.6323 0L0 14.6323C0.541675 15.2045 1.43468 15.275 2.44047 14.7039L19.5908 4.9585Z" transform="translate(12.2611 23.5)" fill="white" fill-opacity="0.7"/>
</mask>
<g mask="url(#mask1)">
<path fill-rule="evenodd" clip-rule="evenodd" d="M19.5908 4.9585L14.6323 0L0 14.6323C0.541675 15.2045 1.43468 15.275 2.44047 14.7039L19.5908 4.9585Z" transform="translate(12.2611 23.5)" fill="white" fill-opacity="0.7"/>
</g>
<mask id="mask2" mask-type="alpha" maskUnits="userSpaceOnUse" x="12" y="8" width="20" height="16">
<path d="M19.5908 10.14L2.44047 0.394544C1.43468 -0.176506 0.541675 -0.106006 0 0.466219L14.6323 15.0985L19.5908 10.14Z" transform="translate(12.2611 8.40161)" fill="white" fill-opacity="0.8"/>
</mask>
<g mask="url(#mask2)">
<path fill-rule="evenodd" clip-rule="evenodd" d="M19.5908 10.14L2.44047 0.394544C1.43468 -0.176506 0.541675 -0.106006 0 0.466219L14.6323 15.0985L19.5908 10.14Z" transform="translate(12.2611 8.40161)" fill="white" fill-opacity="0.8"/>
</g>
</svg>
