<svg width="160" height="40" viewBox="0 0 160 40" fill="none" xmlns="http://www.w3.org/2000/svg">
<mask id="mask0" mask-type="alpha" maskUnits="userSpaceOnUse" x="0" y="0" width="40" height="40">
<path d="M20 40C8.9543 40 0 31.0457 0 20C0 8.9543 8.9543 0 20 0C31.0457 0 40 8.9543 40 20C40 31.0457 31.0457 40 20 40ZM21.4625 26.475C20.9832 26.5879 20.4924 26.6446 20 26.6438C16.5125 26.6438 13.5437 23.9875 13.3313 20.0438C13.3819 19.2907 13.5012 18.5439 13.6875 17.8125L8.275 15.5125C7.71044 17.0541 7.42269 18.6833 7.425 20.325C7.425 27.0875 13.2188 32.5687 19.9812 32.5687C21.5374 32.5714 23.0796 32.2766 24.525 31.7L21.4625 26.475ZM20 7.43125C18.2422 7.42874 16.5046 7.8061 14.9062 8.5375L17.9437 13.7C18.6053 13.4721 19.3003 13.356 20 13.3563C23.0875 13.3563 26.3625 15.9438 26.675 19.1313L17.8937 19.1688L31.5875 25C32.2712 23.3542 32.5951 21.5812 32.5375 19.8C32.5375 13.0125 26.7625 7.43125 20 7.43125Z" fill="white"/>
</mask>
<g mask="url(#mask0)">
<path d="M20 40C8.9543 40 0 31.0457 0 20C0 8.9543 8.9543 0 20 0C31.0457 0 40 8.9543 40 20C40 31.0457 31.0457 40 20 40ZM21.4625 26.475C20.9832 26.5879 20.4924 26.6446 20 26.6438C16.5125 26.6438 13.5437 23.9875 13.3313 20.0438C13.3819 19.2907 13.5012 18.5439 13.6875 17.8125L8.275 15.5125C7.71044 17.0541 7.42269 18.6833 7.425 20.325C7.425 27.0875 13.2188 32.5687 19.9812 32.5687C21.5374 32.5714 23.0796 32.2766 24.525 31.7L21.4625 26.475ZM20 7.43125C18.2422 7.42874 16.5046 7.8061 14.9062 8.5375L17.9437 13.7C18.6053 13.4721 19.3003 13.356 20 13.3563C23.0875 13.3563 26.3625 15.9438 26.675 19.1313L17.8937 19.1688L31.5875 25C32.2712 23.3542 32.5951 21.5812 32.5375 19.8C32.5375 13.0125 26.7625 7.43125 20 7.43125Z" fill="white"/>
<g opacity="0.2">
<g opacity="0.2">
<path opacity="0.2" d="M37.975 17.2312L31.7125 32.5625L28.4 24.7375L31.4188 17.3562H29.7875L27.325 23.4937L24.8875 17.3562H23.2812L26.3 24.7375L23.0125 32.5625L16.725 17.2312L13.5688 9.79375L16.8188 1.96875L23.0812 17.3H24.9312L17.6 0H16.0875L12.4563 8.4875L8.8 0H7.3125L0 17.3H1.83125L8.11875 1.96875L11.4062 9.79375L8.3875 17.1812H9.99375L12.4313 11.0375L14.8938 17.2312L22.2062 34.5375H23.6938L27.35 25.9812L30.9813 34.5375H32.4937L39.825 17.2312H37.975Z" transform="translate(-0.0187492 2.9375)" fill="#50E3C2"/>
</g>
</g>
</g>
<path d="M8.85242 10.9423V3.89781L6.05665 9.14561H4.90134L2.10557 3.89781V10.9423H0V0.299454H2.26062L5.46649 6.35725L8.70237 0.299454H10.948V10.9423H8.85242ZM13.3536 12.469C13.5177 12.5172 13.6848 12.5549 13.8538 12.582C13.9893 12.605 14.1264 12.6182 14.2639 12.6212C14.3896 12.6227 14.5141 12.5976 14.629 12.5476C14.7521 12.4885 14.8572 12.3988 14.9341 12.2874C15.0454 12.1264 15.1377 11.9535 15.2092 11.772C15.2992 11.5527 15.3959 11.2778 15.4992 10.9472L12.3384 3.09272H14.4439L16.5995 9.1947L18.5251 3.07799H20.4506L17.0897 12.4936C16.9031 13.0326 16.5543 13.5033 16.0894 13.8436C15.5874 14.2055 14.9765 14.3921 14.3539 14.3738C14.1864 14.3731 14.0192 14.3599 13.8538 14.3345C13.6754 14.3067 13.4997 14.264 13.3286 14.2069V12.469H13.3536ZM29.443 9.12597V10.9374H21.916V0.299454H29.308V2.1109H24.0215V4.67344H28.5878V6.35234H24.0215V9.12597H29.443ZM35.6297 10.5349C35.3037 10.6733 34.9697 10.793 34.6294 10.8932C34.2243 11.0148 33.8028 11.076 33.3791 11.0749C33.1088 11.0771 32.8395 11.0425 32.5789 10.9718C32.3384 10.9059 32.1151 10.7904 31.9237 10.6331C31.729 10.4698 31.575 10.2649 31.4736 10.0341C31.3531 9.7515 31.2952 9.44697 31.3035 9.1407V4.62926H30.2483V3.08781H31.3035V0.539998H33.3591V3.08781H35.0396V4.62926H33.3591V8.46815C33.334 8.68902 33.4154 8.90873 33.5792 9.06215C33.7336 9.17885 33.9245 9.23954 34.1193 9.23397C34.3321 9.23458 34.5435 9.19972 34.7445 9.13088C34.9479 9.06215 35.1146 9.00161 35.2446 8.94924L35.6297 10.5349ZM44.2871 10.9423H42.2415V6.52416C42.2795 6.04241 42.1566 5.56162 41.8914 5.15453C41.6517 4.85558 41.2781 4.69059 40.8912 4.71271C40.6919 4.71538 40.495 4.75537 40.311 4.83053C40.1015 4.91443 39.9059 5.0286 39.7308 5.16926C39.543 5.32009 39.375 5.49323 39.2307 5.68471C39.0794 5.88227 38.9658 6.10516 38.8956 6.34253V10.9276H36.8601V0H38.9056V4.54089C39.1856 4.04575 39.6015 3.63758 40.1059 3.36272C40.6172 3.08622 41.1927 2.94417 41.7764 2.95035C42.2136 2.93263 42.6485 3.02205 43.0417 3.21054C43.3552 3.37232 43.6192 3.61288 43.8069 3.90762C43.9941 4.20918 44.1229 4.54201 44.187 4.88944C44.2582 5.26503 44.2933 5.64632 44.2921 6.02834V10.9374L44.2871 10.9423ZM49.9386 11.0896C49.3422 11.0974 48.7503 10.9872 48.1981 10.7656C47.2013 10.3672 46.4148 9.58454 46.0225 8.6007C45.8226 8.10884 45.7208 7.58389 45.7225 7.05434C45.7189 6.51438 45.8173 5.97843 46.0125 5.47362C46.2037 4.98814 46.4929 4.54563 46.8628 4.17271C47.2407 3.79877 47.6915 3.50327 48.1881 3.30381C48.7477 3.0775 49.3485 2.96558 49.9536 2.9749C50.554 2.96452 51.1501 3.07652 51.7041 3.30381C52.1982 3.50937 52.6454 3.8098 53.0195 4.18744C53.3813 4.55809 53.6622 4.99745 53.8447 5.47853C54.0317 5.96653 54.1266 6.48388 54.1248 7.00525V7.37834C54.1214 7.4792 54.108 7.5795 54.0847 7.67779H47.8931C47.9173 7.96427 47.9953 8.24388 48.1231 8.50252C48.3594 8.95863 48.7635 9.30959 49.2534 9.48433C49.4982 9.57365 49.7575 9.61856 50.0186 9.61688C50.4231 9.61746 50.8209 9.51604 51.174 9.32233C51.5054 9.15896 51.7676 8.88603 51.9142 8.55161L53.6696 9.04252C53.357 9.65871 52.8665 10.1709 52.2593 10.5152C51.5551 10.9146 50.7515 11.1135 49.9386 11.0896ZM52.0142 6.35234C51.9901 5.81669 51.7574 5.31056 51.364 4.93853C50.5649 4.21374 49.3324 4.21374 48.5332 4.93853C48.3459 5.11401 48.1932 5.32207 48.0831 5.55216C47.9637 5.802 47.8941 6.07194 47.8781 6.34743H52.0342L52.0142 6.35234ZM60.2914 4.82562C59.717 4.82576 59.1492 4.94626 58.626 5.17907C58.1613 5.37989 57.7864 5.73914 57.5707 6.19034V10.9423H55.5251V3.08781H57.4057V4.77653C57.5414 4.51514 57.7094 4.27113 57.9058 4.04999C58.0925 3.83992 58.3022 3.6506 58.531 3.48544C58.7399 3.33344 58.9687 3.20961 59.2112 3.11726C59.4232 3.03552 59.6486 2.99228 59.8763 2.98963H60.1264C60.1796 2.98457 60.2332 2.98457 60.2864 2.98963V4.82562H60.2914ZM65.5279 0.328908H67.4684L68.6887 3.85362L69.9091 0.328908H71.8696L70.0191 5.16926L71.3695 8.57124L74.4403 0.294545H76.7309L72.3197 10.9374H70.5692L68.6887 6.47016L66.8082 10.9374H65.0377L60.6565 0.294545H62.9172L66.003 8.57124L67.3684 5.16926L65.5279 0.328908ZM79.2416 11.0896C78.8713 11.0929 78.5035 11.0297 78.1563 10.9031C77.8338 10.786 77.538 10.6075 77.2861 10.3778C77.0432 10.156 76.8477 9.889 76.7109 9.59233C76.5724 9.28305 76.5025 8.94836 76.5059 8.61052C76.5024 8.25358 76.5882 7.90126 76.7559 7.58452C76.9247 7.26929 77.1641 6.99571 77.4561 6.78434C77.7834 6.54528 78.1507 6.36419 78.5414 6.24925C78.9879 6.1206 79.4515 6.05773 79.9168 6.06271C80.2672 6.06177 80.617 6.09134 80.9621 6.15107C81.2742 6.20279 81.5795 6.28841 81.8723 6.40634V5.96453C81.9012 5.5208 81.7377 5.08577 81.4222 4.76671C81.0487 4.46348 80.5702 4.31394 80.0868 4.34944C79.6596 4.35006 79.236 4.42656 78.8365 4.57526C78.3939 4.74363 77.974 4.96455 77.5862 5.23307L76.961 3.95671C77.9459 3.30902 79.1064 2.96694 80.2919 2.9749C81.2548 2.91458 82.2063 3.20666 82.9626 3.79471C83.6283 4.41808 83.9782 5.29905 83.9179 6.20016V8.6547C83.9032 8.81367 83.9437 8.97285 84.0329 9.10633C84.1304 9.20682 84.2667 9.2621 84.408 9.25851V10.9669C84.1122 11.0304 83.8106 11.065 83.5078 11.07C83.1881 11.0906 82.8712 11.0002 82.6125 10.8147C82.4034 10.6446 82.2647 10.4055 82.2224 10.1421L82.1774 9.6856C81.8363 10.1333 81.3903 10.4937 80.8771 10.7361C80.3663 10.9742 79.807 11.0951 79.2416 11.0896ZM79.8218 9.61688C80.164 9.61992 80.5036 9.55825 80.822 9.43524C81.1017 9.33344 81.3509 9.1647 81.5472 8.94433C81.7457 8.81841 81.8704 8.60653 81.8823 8.37488V7.49125C81.6238 7.39787 81.3578 7.32563 81.0871 7.27525C80.8154 7.22133 80.5391 7.19339 80.2619 7.19179C79.8013 7.17205 79.3462 7.29576 78.9615 7.54525C78.6496 7.73906 78.4608 8.07636 78.4614 8.4387C78.4537 8.76623 78.5993 9.07916 78.8565 9.28797C79.1258 9.51147 79.4692 9.63025 79.8218 9.62179V9.61688ZM85.9634 0H88.009V8.42397C87.9934 8.66655 88.07 8.90619 88.2241 9.09652C88.3806 9.26217 88.6044 9.35041 88.8342 9.33706C88.9713 9.33533 89.1076 9.31551 89.2393 9.27815C89.3834 9.2388 89.5239 9.1879 89.6595 9.12597L89.9345 10.6674C89.6288 10.8071 89.3061 10.9077 88.9743 10.9669C88.645 11.0325 88.31 11.067 87.974 11.07C87.4271 11.1098 86.8867 10.933 86.4736 10.5791C86.103 10.1937 85.9127 9.67432 85.9484 9.14561V0H85.9634ZM90.9548 0H93.0004V8.42397C92.9848 8.66655 93.0614 8.90619 93.2154 9.09652C93.372 9.26217 93.5958 9.35041 93.8256 9.33706C93.9627 9.33533 94.099 9.31551 94.2307 9.27815C94.3747 9.2388 94.5153 9.1879 94.6508 9.12597L94.9259 10.6674C94.6201 10.8071 94.2974 10.9077 93.9656 10.9669C93.6363 11.0325 93.3014 11.067 92.9654 11.07C92.4185 11.1098 91.8781 10.933 91.465 10.5791C91.0944 10.1937 90.9041 9.67432 90.9398 9.14561V0H90.9548ZM99.6772 11.0896C99.0807 11.0974 98.4888 10.9872 97.9367 10.7656C96.9398 10.3672 96.1533 9.58454 95.7611 8.6007C95.5612 8.10884 95.4593 7.58389 95.461 7.05434C95.4575 6.51438 95.5558 5.97843 95.7511 5.47362C95.9387 4.98721 96.2245 4.54305 96.5913 4.1678C96.9727 3.79453 97.4269 3.50066 97.9267 3.30381C98.4863 3.0775 99.087 2.96558 99.6922 2.9749C100.293 2.96452 100.889 3.07652 101.443 3.30381C101.937 3.50937 102.384 3.8098 102.758 4.18744C103.12 4.55809 103.401 4.99745 103.583 5.47853C103.773 5.95943 103.873 6.46994 103.878 6.98561V7.3587C103.875 7.45957 103.862 7.55987 103.838 7.65816H97.6316C97.6559 7.94463 97.7339 8.22424 97.8617 8.48288C98.098 8.939 98.502 9.28995 98.992 9.46469C99.2368 9.55401 99.4961 9.59892 99.7572 9.59724C100.162 9.59783 100.559 9.4964 100.913 9.3027C101.244 9.13933 101.506 8.8664 101.653 8.53197L103.408 9.02288C103.096 9.63907 102.605 10.1513 101.998 10.4956C101.296 10.9018 100.492 11.1076 99.6772 11.0896ZM101.753 6.35234C101.726 5.81287 101.488 5.30447 101.088 4.93362C100.288 4.20883 99.0559 4.20883 98.2568 4.93362C98.0694 5.1091 97.9168 5.31716 97.8067 5.54725C97.6873 5.79709 97.6177 6.06703 97.6016 6.34253H101.758L101.753 6.35234ZM110 10.5349C109.674 10.6733 109.34 10.793 109 10.8932C108.595 11.0148 108.173 11.076 107.749 11.0749C107.479 11.0771 107.21 11.0425 106.949 10.9718C106.709 10.9059 106.485 10.7904 106.294 10.6331C106.099 10.4698 105.945 10.2649 105.844 10.0341C105.723 9.7515 105.665 9.44697 105.674 9.1407V4.62926H104.619V3.08781H105.674V0.539998H107.719V3.08781H109.38V4.62926H107.699V8.46815C107.674 8.68902 107.756 8.90873 107.919 9.06215C108.074 9.17885 108.265 9.23954 108.46 9.23397C108.672 9.23458 108.884 9.19972 109.085 9.13088C109.288 9.06215 109.455 9.00161 109.585 8.94924L110 10.5349Z" transform="translate(50 13.75)" fill="white"/>
</svg>
