<svg width="24" height="24" viewBox="0 0 24 24" fill="none" xmlns="http://www.w3.org/2000/svg">
<path d="M2.37167 3.23917C2.39667 2.99333 2.3025 2.75083 2.11917 2.58583L0.2525 0.335833V0H6.05L10.5317 9.82917L14.4717 0H20V0.335833L18.4025 1.86667C18.265 1.97167 18.1967 2.14417 18.225 2.315V13.565C18.1967 13.735 18.265 13.9067 18.4025 14.0125L19.9608 15.5433V15.8792H12.1192V15.5433L13.7333 13.975C13.8917 13.8167 13.8917 13.77 13.8917 13.5267V4.43417L9.4 15.8408H8.79417L3.565 4.43417V12.0792C3.52167 12.4008 3.62833 12.7242 3.85417 12.9567L5.95417 15.5067V15.8417H0V15.5058L2.1 12.9558C2.325 12.7242 2.425 12.3975 2.37167 12.0792V3.23917Z" transform="translate(2 4)" fill="white"/>
</svg>
