<svg width="100" height="100" viewBox="0 0 100 100" fill="none" xmlns="http://www.w3.org/2000/svg">
<circle cx="48" cy="48" r="46" transform="translate(2 2)" stroke="#064DD6" stroke-width="4"/>
<rect x="1" y="1" width="38" height="55" rx="1" transform="translate(35.2528 19.9597) rotate(10)" stroke="#064DD6" stroke-width="2"/>
<rect x="1" y="1" width="38" height="55" rx="1" transform="translate(30 23)" fill="white" stroke="#064DD6" stroke-width="2"/>
<rect x="1" y="1" width="38" height="55" rx="1" transform="translate(23.3051 29.1475) rotate(-15)" fill="white" stroke="#064DD6" stroke-width="2"/>
<path d="M6.31586 12.6317C9.80402 12.6317 12.6317 9.80402 12.6317 6.31586C12.6317 2.82771 9.80402 0 6.31586 0C2.82771 0 0 2.82771 0 6.31586C0 9.80402 2.82771 12.6317 6.31586 12.6317Z" transform="translate(41.0219 42) rotate(-15)" fill="white" stroke="#064DD6" stroke-width="2"/>
<path fill-rule="evenodd" clip-rule="evenodd" d="M10.4193 9.42429C13.8057 9.42429 16.5623 8.9513 18.6883 8.0242C19.7797 7.54825 20.3906 6.37484 20.1547 5.20778L19.422 1.5842C19.2186 0.578372 18.2515 -0.0827501 17.2404 0.0929263C15.3567 0.420245 13.0849 0.582082 10.4193 0.582082C7.58068 0.582082 5.09983 0.398485 2.97335 0.0283532C1.96216 -0.147653 0.994681 0.513495 0.791262 1.51953L0.0503637 5.18375C-0.188093 6.36307 0.438239 7.54692 1.54736 8.01328C3.76805 8.94703 6.72737 9.42429 10.4193 9.42429Z" transform="translate(41.1368 57.0591) rotate(-15)" stroke="#064DD6" stroke-width="2"/>
<path d="M19.5296 5.17641L14.2354 7.99997C13.2608 8.51977 12.0493 8.15106 11.5295 7.17645V7.17645C11.0097 6.20183 11.3784 4.99036 12.353 4.47057L17.206 1.88235C19.1552 0.842757 21.5781 1.58017 22.6177 3.52941V3.52941C23.6573 5.47865 22.9199 7.90157 20.9707 8.94117L7.29422 16.2353C5.345 17.2748 2.9221 16.5375 1.88249 14.5883V14.5883C0.842854 12.639 1.58026 10.216 3.52952 9.17644L6.17663 7.76465" transform="translate(66.7578 19.2041) rotate(118.072)" stroke="#064DD6" stroke-width="2"/>
<rect width="4" height="92" transform="translate(16.0589 18.8872) rotate(-45)" fill="#064DD6"/>
</svg>
