<svg fill="none" height="100" viewBox="0 0 100 100" width="100" xmlns="http://www.w3.org/2000/svg"><g clip-rule="evenodd" fill="#064dd6" fill-rule="evenodd"><path d="m39.4382 6.37622c-.3276.04077-.6613.06201-1 .06201-.3386 0-.6724-.02124-1-.06201v13.40238l-5.9628-2.5555 4.7545-11.09346c-.6504-.18628-1.2668-.45313-1.838-.78858l-4.7548 11.09424-5.4472-2.3345 9.3428-9.34274c-.5283-.41065-1.0037-.88599-1.4144-1.41431l-9.9084 9.90845-6.0803-2.6057c-.1864.6504-.453 1.2668-.7885 1.8379l5.3456 2.291-2.2485 2.2485-3.6801-3.6801c-.4106.5283-.886 1.0036-1.4142 1.4143l3.6801 3.6801-2.2484 2.2483-2.291-5.3457c-.5711.3355-1.1876.6023-1.838.7888l2.6058 6.0801-9.9086 9.9087c.52822.4107 1.0036.8858 1.41421 1.4141l9.34289-9.3428 2.3346 5.4473-11.09461 4.7548c.33555.5711.60223 1.1875.78864 1.8379l11.09387-4.7544 2.5555 5.9629h-13.40255c.04085.3277.06189.6614.06189 1 0 .3387-.02104.6724-.06189 1h13.40245l-2.5554 5.9627-11.0938-4.7544c-.1864.6504-.45307 1.2666-.7886 1.8379l11.0945 4.7549-2.3346 5.4472-9.34278-9.3427c-.41062.5283-.886 1.0036-1.41422 1.4143l9.9085 9.9084-2.6059 6.0803c.6504.1863 1.2669.4532 1.838.7886l2.2911-5.3457 2.2485 2.2485-3.6801 3.6802c.5281.4107 1.0035.886 1.414 1.4141l3.6803-3.6802 2.2484 2.2485-5.3458 2.291c.3356.5711.6022 1.1878.7886 1.8382l6.0804-2.606 9.9085 9.9085c.4107-.5283.886-1.0034 1.4143-1.4141l-9.343-9.343 5.4475-2.3345 4.7548 11.0945c.5711-.3354 1.1876-.6023 1.838-.7886l-4.7545-11.0937 5.9627-2.5554v13.4025c.3276-.0407.6614-.062 1-.062.3387 0 .6724.0213 1 .062v-13.4025l5.9628 2.5554-4.7545 11.0937c.6504.1863 1.2669.4532 1.838.7886l4.7549-11.0945 5.4474 2.3345-9.3429 9.343c.5282.4107 1.0036.886 1.4141 1.4141l9.9086-9.9085 6.0803 2.606c.1864-.6504.4531-1.2671.7887-1.8382l-5.3458-2.291 2.2485-2.2485 3.6802 3.6802c.4106-.5281.8859-1.0034 1.4141-1.4141l-3.6802-3.6802 2.2485-2.2485 2.2911 5.3457c.5711-.3354 1.1876-.6023 1.838-.7886l-2.6059-6.0803 9.9085-9.9084c-.5282-.4107-1.0036-.886-1.4142-1.4143l-9.3428 9.3427-2.3346-5.4472 11.0945-4.7549c-.3355-.5713-.6022-1.1875-.7886-1.8379l-11.0938 4.7544-2.5554-5.9627h13.4024c-.0408-.3276-.0619-.6613-.0619-1 0-.3386.0211-.6723.0619-1h-13.4025l2.5555-5.9629 11.0938 4.7544c.1865-.6504.4531-1.2668.7887-1.8379l-11.0946-4.7548 2.3346-5.4473 9.3429 9.3428c.4106-.5281.8859-1.0034 1.4141-1.4141l-9.9086-9.9087 2.6059-6.0801c-.6504-.1862-1.2669-.4533-1.838-.7888l-2.291 5.346-2.2485-2.2486 3.6802-3.6801c-.5282-.4107-1.0036-.886-1.4142-1.4143l-3.6802 3.6801-2.2484-2.2485 5.3457-2.291c-.3356-.5711-.6022-1.1875-.7886-1.8379l-6.0804 2.6057-9.9084-9.90845c-.4106.52832-.886 1.00366-1.4143 1.41431l9.3428 9.34274-5.4473 2.3345-4.7547-11.09424c-.5712.33545-1.1876.6023-1.838.78858l4.7544 11.09346-5.9628 2.5555zm35.5408 24.84648c.5953-.2859 1.2315-.5003 1.8974-.6321l-4.9789-14.9368c-.5954.2859-1.2316.5003-1.8975.6321zm1.8975 15.0632c-.6659-.1318-1.3022-.3462-1.8975-.6321l-4.979 14.9368c.666.1318 1.3022.3462 1.8975.6321zm-31.2228 28.6931 14.9369-4.979c.1318.666.3463 1.302.6322 1.8975l-14.9369 4.979c-.1318-.6658-.3462-1.3023-.6322-1.8975zm14.9369-68.10254c.1318-.66601.3462-1.30224.6321-1.89746l-14.9368-4.979c-.1318.666016-.3463 1.30225-.6322 1.89746zm-44.3047 63.12354 14.9368 4.9792c-.2859.5953-.5003 1.2315-.6321 1.8973l-14.9369-4.979c.2859-.5955.5004-1.2315.6322-1.8975zm14.9369-68.10254c-.286-.59521-.5004-1.231444-.6322-1.89746l-14.9368 4.979c.2859.59522.5003 1.23169.6321 1.89746zm-31.2228 44.38844c.665924-.1318 1.30213-.3462 1.89748-.6321l4.97895 14.9368c-.66591.1318-1.30211.3462-1.89746.6321zm1.89749-15.0632c-.59534-.2859-1.231524-.5003-1.89743278-.6321l4.97893278-14.9368c.59537.2859 1.23159.5003 1.89753.6321zm53.68361 9.7541 2.2337 5.2119-5.4726 2.3455zm3.0216 7.0503-6.4129 2.7483 6.2484 6.2485 2.8142-2.8142zm-19.1645-7.1748 9.2485 9.2485-9.2485 3.9637zm9.0961 11.4897-7.5575 3.2391 5.2121 2.2336zm-20.192 0 7.5572 3.2391-5.2119 2.2336zm-2.2413-.1523 2.7483 6.4128-6.1828 2.6497-2.814-2.814zm-7.8272-4.1626-2.6497 6.1826 2.8142 2.8142 6.2484-6.2485zm6.2605.5071-5.4726-2.3455 2.2337-5.2119zm12.9039 5.5303-9.2484-3.9637 9.2484-9.2483zm16.7718 7.1877-6.1828-2.6497 2.7484-6.4128 6.2484 6.2485zm-.0002-45.6282-6.1826 2.6497 2.7484 6.4128 6.2484-6.2483zm-8.0209 3.4375-5.2119 2.2337 7.5573 3.239zm-15.5013 0 5.212 2.2337-7.5574 3.239zm6.7506 3.7503-9.2484 3.9636 9.2484 9.2485zm-18.9999-2.9595 6.2484 6.2485-6.4129 2.7483-2.6497-6.1826zm6.096 8.4897-5.4726 2.3455 2.2337 5.2119zm-1.8676-12.718-2.8142 2.8142 6.2484 6.2483 2.7484-6.4128zm16.7715 7.1878v13.2121l9.2485-9.2485zm12.904 5.5302 3.2389 7.5574 2.2337-5.2119zm6.2605.5071-6.4129-2.7483 6.2485-6.2485 2.8141 2.8142zm-17.7503 8.5891 9.2485-9.2485 3.9637 9.2485zm0 2h13.2121l-3.9636 9.2486zm-14.0768-11.2485-3.9637 9.2485h13.2123zm0 20.4971-3.9636-9.2486h13.212z" transform="translate(11.5618 11.5618)"/><path d="m10 4c-3.31371 0-6 2.68629-6 6 0 3.3137 2.68629 6 6 6 3.3137 0 6-2.6863 6-6 0-3.31371-2.6863-6-6-6zm-10 6c0-5.52285 4.47715-10 10-10 5.5228 0 10 4.47715 10 10 0 5.5228-4.4772 10-10 10-5.52285 0-10-4.4772-10-10z" transform="translate(10 10)"/><path d="m10 4c-3.31371 0-6 2.68629-6 6 0 3.3137 2.68629 6 6 6 3.3137 0 6-2.6863 6-6 0-3.31371-2.6863-6-6-6zm-10 6c0-5.52285 4.47715-10 10-10 5.5228 0 10 4.47715 10 10 0 5.5228-4.4772 10-10 10-5.52285 0-10-4.4772-10-10z" transform="translate(10 70)"/><path d="m10 4c-3.31371 0-6 2.68629-6 6 0 3.3137 2.68629 6 6 6 3.3137 0 6-2.6863 6-6 0-3.31371-2.6863-6-6-6zm-10 6c0-5.52285 4.47715-10 10-10 5.5228 0 10 4.47715 10 10 0 5.5228-4.4772 10-10 10-5.52285 0-10-4.4772-10-10z" transform="translate(0 40)"/><path d="m10 4c-3.31371 0-6 2.68629-6 6 0 3.3137 2.68629 6 6 6 3.3137 0 6-2.6863 6-6 0-3.31371-2.6863-6-6-6zm-10 6c0-5.52285 4.47715-10 10-10 5.5228 0 10 4.47715 10 10 0 5.5228-4.4772 10-10 10-5.52285 0-10-4.4772-10-10z" transform="translate(40)"/><path d="m10 4c-3.31371 0-6 2.68629-6 6 0 3.3137 2.68629 6 6 6 3.3137 0 6-2.6863 6-6 0-3.31371-2.6863-6-6-6zm-10 6c0-5.52285 4.47715-10 10-10 5.5228 0 10 4.47715 10 10 0 5.5228-4.4772 10-10 10-5.52285 0-10-4.4772-10-10z" transform="translate(40 80)"/><path d="m10 4c-3.31371 0-6 2.68629-6 6 0 3.3137 2.68629 6 6 6 3.3137 0 6-2.6863 6-6 0-3.31371-2.6863-6-6-6zm-10 6c0-5.52285 4.47715-10 10-10 5.5228 0 10 4.47715 10 10 0 5.5228-4.4772 10-10 10-5.52285 0-10-4.4772-10-10z" transform="translate(70 10)"/><path d="m10 4c-3.31371 0-6 2.68629-6 6 0 3.3137 2.68629 6 6 6 3.3137 0 6-2.6863 6-6 0-3.31371-2.6863-6-6-6zm-10 6c0-5.52285 4.47715-10 10-10 5.5228 0 10 4.47715 10 10 0 5.5228-4.4772 10-10 10-5.52285 0-10-4.4772-10-10z" transform="translate(70 70)"/><path d="m10 4c-3.31371 0-6 2.68629-6 6 0 3.3137 2.68629 6 6 6 3.3137 0 6-2.6863 6-6 0-3.31371-2.6863-6-6-6zm-10 6c0-5.52285 4.47715-10 10-10 5.5228 0 10 4.47715 10 10 0 5.5228-4.4772 10-10 10-5.52285 0-10-4.4772-10-10z" transform="translate(80 40)"/></g></svg>