<svg width="96" height="96" viewBox="0 0 96 96" fill="none" xmlns="http://www.w3.org/2000/svg">
<path d="M92 46C92 20.5949 71.4051 0 46 0C20.5949 0 0 20.5949 0 46C0 71.4051 20.5949 92 46 92C71.4051 92 92 71.4051 92 46Z" transform="translate(2 2)" stroke="white" stroke-width="4"/>
<mask id="mask0" mask-type="alpha" maskUnits="userSpaceOnUse" x="4" y="4" width="88" height="88">
<path d="M88 44C88 19.6995 68.3005 0 44 0C19.6995 0 0 19.6995 0 44C0 68.3005 19.6995 88 44 88C68.3005 88 88 68.3005 88 44Z" transform="translate(4 4)" fill="white"/>
</mask>
<g mask="url(#mask0)">
<path d="M2 4C3.10457 4 4 3.10457 4 2C4 0.89543 3.10457 0 2 0C0.89543 0 0 0.89543 0 2C0 3.10457 0.89543 4 2 4Z" transform="translate(61 33)" fill="white"/>
<path d="M0 0C17 0 35 14.5 44 28" transform="translate(19 7)" stroke="white" stroke-width="2" stroke-linecap="square"/>
<path d="M0 0L8 15C10.0172 18.1897 12.0172 19.1897 14 18C15.9828 16.8103 15.8161 14.3103 13.5 10.5" transform="translate(63 35)" stroke="white" stroke-width="2" stroke-linecap="square"/>
<path fill-rule="evenodd" clip-rule="evenodd" d="M0.5 0L4 5.5L0 7.5L0.5 0Z" transform="translate(74 40.5)" fill="white"/>
<path fill-rule="evenodd" clip-rule="evenodd" d="M20 0C30.1498 0 56 3 65 15C63.1053 16.2631 57.621 19.6202 48.5469 25.0713L48.5469 25.0712C48.3101 25.2134 48.2335 25.5207 48.3757 25.7574C48.4661 25.9079 48.6288 26 48.8044 26C57.4162 26 62.4814 26 64 26C58 35 41.4747 40 32.5 40C16.0372 40 0 22 0 19C0 16 3.46875 0 20 0Z" transform="translate(-16 47)" stroke="white" stroke-width="4" stroke-linecap="round" stroke-linejoin="round"/>
<path d="M70.4419 70.4419L0 0" transform="translate(14.6943 12.6943)" stroke="white" stroke-width="4" stroke-linecap="square"/>
<path d="M5 10C7.76142 10 10 7.76142 10 5C10 2.23858 7.76142 0 5 0C2.23858 0 0 2.23858 0 5C0 7.76142 2.23858 10 5 10Z" transform="translate(21 55)" fill="white"/>
</g>
</svg>
