<svg width="24" height="24" viewBox="0 0 24 24" fill="none" xmlns="http://www.w3.org/2000/svg">
<path d="M2.02025 11.0811C1.96525 11.3341 1.93684 11.5944 1.93684 11.8575C1.93684 15.0135 5.97183 17.5855 10.9326 17.5855C15.8916 17.5855 19.9266 15.0153 19.9266 11.8575C19.9266 11.6064 19.9 11.357 19.8514 11.116L19.8377 11.0866C19.8184 11.0362 19.8111 10.9858 19.8111 10.9354C19.5343 9.85834 18.7872 8.88121 17.7065 8.09108C17.6653 8.07641 17.6258 8.05533 17.591 8.02692C17.5672 8.00858 17.5498 7.98842 17.5296 7.96825C15.887 6.83713 13.5368 6.12766 10.9335 6.12766C8.35324 6.12766 6.02592 6.82338 4.38332 7.93434C4.37048 7.95084 4.35673 7.96459 4.3384 7.97925C4.30265 8.0095 4.26141 8.03425 4.21924 8.048C3.11379 8.83813 2.34749 9.82351 2.0615 10.9106C2.0615 10.9638 2.04866 11.0151 2.02758 11.0674L2.02025 11.0811ZM10.9785 16.0685C9.33403 16.0685 8.17633 15.7119 7.43752 14.9713C7.27895 14.8118 7.27895 14.5524 7.43752 14.392C7.59885 14.2407 7.85917 14.2407 8.01958 14.392C8.59706 14.9685 9.5641 15.2564 10.9785 15.2564C12.3919 15.2564 13.3534 14.9814 13.9291 14.4048C14.0803 14.2545 14.3416 14.2545 14.5056 14.4048C14.6569 14.5698 14.6569 14.8311 14.5056 14.996C13.7641 15.7367 12.6128 16.0942 10.9656 16.0942L10.9785 16.0685ZM7.6731 9.12687C6.8353 9.12687 6.13591 9.82809 6.13591 10.6641C6.13591 11.4982 6.8353 12.1765 7.6731 12.1765C8.5109 12.1765 9.18645 11.4982 9.18645 10.6641C9.18645 9.82809 8.50906 9.12687 7.6731 9.12687ZM14.3031 9.12687C13.4653 9.12687 12.765 9.82809 12.765 10.6641C12.765 11.4982 13.4653 12.1765 14.3031 12.1765C15.1409 12.1765 15.8164 11.4982 15.8164 10.6641C15.8164 9.82809 15.139 9.12687 14.3031 9.12687ZM18.4719 7.66485C19.4224 8.4284 20.1218 9.33403 20.4784 10.3267C20.8909 10.0188 21.1375 9.53477 21.1375 8.99854C21.1375 8.08008 20.3904 7.33395 19.471 7.33395C19.1053 7.33395 18.7579 7.45219 18.4719 7.66668V7.66485ZM2.48498 7.33578C1.5656 7.33578 0.819466 8.08375 0.819466 9.00221C0.819466 9.49994 1.03854 9.96284 1.40977 10.2754C1.77734 9.28636 2.48406 8.39357 3.43827 7.63918C3.16145 7.44669 2.83055 7.33761 2.4859 7.33761V7.33578H2.48498ZM10.9335 18.4077C5.51994 18.4077 1.11737 15.4699 1.11737 11.8612C1.11737 11.6091 1.13845 11.3625 1.1797 11.1196C0.452814 10.6677 0 9.87117 0 8.99854C0 7.62727 1.1247 6.51173 2.49781 6.51173C3.11562 6.51173 3.69218 6.73722 4.14499 7.13687C5.84626 6.04517 8.13874 5.35769 10.6641 5.31095L12.325 0.24749L12.6953 0.334569C12.6953 0.334569 12.71 0.334569 12.71 0.336403L16.5809 1.24661C16.8962 0.515145 17.624 0 18.4737 0C19.6003 0 20.5187 0.920295 20.5187 2.04775C20.5187 3.17703 19.5993 4.0955 18.4737 4.0955C17.3481 4.0955 16.4296 3.1752 16.4296 2.05141L12.8997 1.21545L11.555 5.3192C13.9841 5.41544 16.1812 6.102 17.8284 7.1717C18.2812 6.74639 18.877 6.51265 19.5086 6.51265C20.8817 6.51265 22 7.62452 22 8.99763C22 9.90234 21.505 10.7264 20.7369 11.1655C20.7635 11.3992 20.791 11.6183 20.791 11.852C20.7772 15.4617 16.3857 18.3995 10.9647 18.3995L10.9335 18.4077ZM18.4306 0.820383C17.7523 0.820383 17.2024 1.36944 17.2024 2.04683C17.2024 2.7233 17.7523 3.27511 18.4306 3.27511C19.1016 3.27511 19.6498 2.72514 19.6498 2.05233C19.6498 1.38044 19.1016 0.831382 18.4151 0.831382L18.4306 0.820383Z" transform="translate(1 2)" fill="white"/>
</svg>
