<svg width="58" height="96" viewBox="0 0 58 96" fill="none" xmlns="http://www.w3.org/2000/svg">
<path d="M47 0H7C3.13401 0 0 3.13401 0 7V85C0 88.866 3.13401 92 7 92H47C50.866 92 54 88.866 54 85V7C54 3.13401 50.866 0 47 0Z" transform="translate(2 2)" stroke="white" stroke-width="4"/>
<path d="M17 34C26.3888 34 34 26.3888 34 17C34 7.61116 26.3888 0 17 0C7.61116 0 0 7.61116 0 17C0 26.3888 7.61116 34 17 34Z" transform="translate(12 31)" stroke="white" stroke-width="4"/>
<path d="M8 16C12.4183 16 16 12.4183 16 8C16 3.58172 12.4183 0 8 0C3.58172 0 0 3.58172 0 8C0 12.4183 3.58172 16 8 16Z" transform="translate(21 40)" stroke="white" stroke-width="2"/>
<path fill-rule="evenodd" clip-rule="evenodd" d="M18 0C18.5523 0 19 0.447715 19 1V6C19 6.55228 18.5523 7 18 7C17.4477 7 17 6.55228 17 6V1C17 0.447715 17.4477 0 18 0ZM27 2.41154C27.4783 2.68768 27.6422 3.29928 27.366 3.77757L24.866 8.1077C24.5899 8.58599 23.9783 8.74986 23.5 8.47372C23.0217 8.19758 22.8578 7.58599 23.134 7.1077L25.634 2.77757C25.9101 2.29928 26.5217 2.1354 27 2.41154ZM33.5885 9C33.8646 9.47829 33.7007 10.0899 33.2224 10.366L28.8923 12.866C28.414 13.1422 27.8024 12.9783 27.5263 12.5C27.2501 12.0217 27.414 11.4101 27.8923 11.134L32.2224 8.63398C32.7007 8.35783 33.3123 8.52171 33.5885 9ZM36 18C36 18.5523 35.5523 19 35 19H30C29.4477 19 29 18.5523 29 18C29 17.4477 29.4477 17 30 17H35C35.5523 17 36 17.4477 36 18ZM33.5885 27C33.3123 27.4783 32.7007 27.6422 32.2224 27.366L27.8923 24.866C27.414 24.5899 27.2501 23.9783 27.5263 23.5C27.8024 23.0217 28.414 22.8578 28.8923 23.134L33.2224 25.634C33.7007 25.9101 33.8646 26.5217 33.5885 27ZM27 33.5885C26.5217 33.8646 25.9101 33.7007 25.634 33.2224L23.134 28.8923C22.8578 28.414 23.0217 27.8024 23.5 27.5263C23.9783 27.2501 24.5899 27.414 24.866 27.8923L27.366 32.2224C27.6422 32.7007 27.4783 33.3123 27 33.5885ZM18 36C17.4477 36 17 35.5523 17 35V30C17 29.4477 17.4477 29 18 29C18.5523 29 19 29.4477 19 30V35C19 35.5523 18.5523 36 18 36ZM9 33.5885C8.52171 33.3123 8.35783 32.7007 8.63398 32.2224L11.134 27.8923C11.4101 27.414 12.0217 27.2501 12.5 27.5263C12.9783 27.8024 13.1422 28.414 12.866 28.8923L10.366 33.2224C10.0899 33.7007 9.47829 33.8646 9 33.5885ZM2.41154 27C2.1354 26.5217 2.29928 25.9101 2.77757 25.634L7.1077 23.134C7.58599 22.8578 8.19758 23.0217 8.47372 23.5C8.74986 23.9783 8.58599 24.5899 8.1077 24.866L3.77757 27.366C3.29928 27.6422 2.68768 27.4783 2.41154 27ZM0 18C0 17.4477 0.447715 17 1 17H6C6.55228 17 7 17.4477 7 18C7 18.5523 6.55228 19 6 19H1C0.447715 19 0 18.5523 0 18ZM2.41154 9C2.68768 8.52171 3.29928 8.35783 3.77757 8.63398L8.1077 11.134C8.58599 11.4101 8.74986 12.0217 8.47372 12.5C8.19758 12.9783 7.58599 13.1422 7.1077 12.866L2.77757 10.366C2.29928 10.0899 2.1354 9.47829 2.41154 9ZM9 2.41154C9.47829 2.1354 10.0899 2.29928 10.366 2.77757L12.866 7.1077C13.1422 7.58599 12.9783 8.19758 12.5 8.47372C12.0217 8.74986 11.4101 8.58599 11.134 8.1077L8.63398 3.77757C8.35783 3.29928 8.52171 2.68768 9 2.41154Z" transform="translate(11 30)" fill="white"/>
<path fill-rule="evenodd" clip-rule="evenodd" d="M0 0H29V3H27C25.8954 3 25 3.89543 25 5C25 6.10457 24.1046 7 23 7H7C5.89543 7 5 6.10457 5 5C5 3.89543 4.10457 3 3 3H0V0Z" transform="translate(14 1)" fill="white"/>
</svg>
