<svg width="64" height="86" viewBox="0 0 64 86" fill="none" xmlns="http://www.w3.org/2000/svg">
<path fill-rule="evenodd" clip-rule="evenodd" d="M0 36H32V16.6813C32 13.0393 31.358 10.0397 30.0993 7.54775C28.8913 5.15601 27.1304 3.29161 24.8716 2.01249C22.518 0.679759 19.6851 0 16.2454 0H15.7546C12.3149 0 9.48199 0.679759 7.12843 2.01249C4.86956 3.29161 3.10875 5.15601 1.90069 7.54775C0.641995 10.0397 0 13.0393 0 16.6813V36Z" transform="translate(16 2)" stroke="#06C0A5" stroke-width="4"/>
<path d="M50 0H10C4.47715 0 0 4.47715 0 10V36C0 41.5228 4.47715 46 10 46H50C55.5228 46 60 41.5228 60 36V10C60 4.47715 55.5228 0 50 0Z" transform="translate(2 38)" stroke="#06C0A5" stroke-width="4"/>
<path d="M5 10C7.76142 10 10 7.76142 10 5C10 2.23858 7.76142 0 5 0C2.23858 0 0 2.23858 0 5C0 7.76142 2.23858 10 5 10Z" transform="translate(19 52)" fill="#06C0A5"/>
<path fill-rule="evenodd" clip-rule="evenodd" d="M2.00018 0H2.95566C4.06023 0 4.95566 0.89543 4.95566 2C4.95566 2.07517 4.95142 2.15028 4.94297 2.22497L3.93685 11.1125C3.87962 11.618 3.45196 12 2.9432 12H2.01264C1.50388 12 1.07622 11.618 1.01899 11.1125L0.012875 2.22497C-0.111374 1.12741 0.677649 0.136943 1.77521 0.0126934C1.8499 0.00423777 1.92501 0 2.00018 0Z" transform="translate(21.5222 58)" fill="#06C0A5"/>
<path d="M5 10C7.76142 10 10 7.76142 10 5C10 2.23858 7.76142 0 5 0C2.23858 0 0 2.23858 0 5C0 7.76142 2.23858 10 5 10Z" transform="translate(44 70) rotate(180)" fill="#06C0A5"/>
<path fill-rule="evenodd" clip-rule="evenodd" d="M2.00018 0H2.95566C4.06023 0 4.95566 0.89543 4.95566 2C4.95566 2.07517 4.95142 2.15028 4.94297 2.22497L3.93685 11.1125C3.87962 11.618 3.45196 12 2.9432 12H2.01264C1.50388 12 1.07622 11.618 1.01899 11.1125L0.012875 2.22497C-0.111374 1.12741 0.677649 0.136943 1.77521 0.0126934C1.8499 0.00423777 1.92501 0 2.00018 0Z" transform="translate(41.4778 64) rotate(180)" fill="#06C0A5"/>
</svg>
