<svg width="24" height="24" viewBox="0 0 24 24" fill="none" xmlns="http://www.w3.org/2000/svg">
<path d="M21.9569 2.14354C21.1457 2.50249 20.2795 2.74701 19.3674 2.85867C20.2969 2.29487 21.0119 1.40626 21.3501 0.34603C20.4784 0.858153 19.5123 1.23094 18.4838 1.43856C17.6625 0.553647 16.492 0 15.1922 0C12.7017 0 10.6824 2.03281 10.6824 4.53714C10.6824 4.89701 10.7236 5.24304 10.7988 5.57431C7.04979 5.39622 3.72701 3.58394 1.50327 0.844312C1.11187 1.51053 0.892796 2.28472 0.892796 3.12811C0.892796 4.706 1.69026 6.09289 2.89838 6.90767C2.15866 6.88368 1.46294 6.67883 0.856131 6.33926V6.39555C0.856131 8.5963 2.40798 10.4316 4.47315 10.8496C4.09458 10.9521 3.69493 11.0074 3.2852 11.0074C2.99738 11.0074 2.72147 10.9798 2.44556 10.9281C3.02396 12.7302 4.68672 14.0442 6.66572 14.0811C5.12579 15.2982 3.17428 16.0235 1.07246 16.0235C0.71497 16.0235 0.358402 16.0023 0 15.9617C2.0065 17.248 4.37048 18 6.92696 18C15.2261 18 19.7588 11.0831 19.7588 5.09448C19.7588 4.90163 19.7588 4.70693 19.7451 4.51315C20.626 3.87738 21.395 3.07367 22 2.16199L21.9569 2.14354Z" transform="translate(1 3)" fill="white"/>
</svg>
